<?xml version="1.0" encoding="utf-8"?>
<!-- Generator: Adobe Illustrator 18.0.0, SVG Export Plug-In . SVG Version: 6.00 Build 0)  -->
<!DOCTYPE svg PUBLIC "-//W3C//DTD SVG 1.1//EN" "http://www.w3.org/Graphics/SVG/1.1/DTD/svg11.dtd">
<svg version="1.1" xmlns="http://www.w3.org/2000/svg" xmlns:xlink="http://www.w3.org/1999/xlink" x="0px" y="0px"
	 viewBox="0 0 121 133" style="enable-background:new 0 0 121 133;" xml:space="preserve">
<g id="Layer_2" style="display:none;">
	
		<rect x="-10" y="49.5" style="display:inline;fill:none;stroke:#000000;stroke-width:0.3258;stroke-miterlimit:10;" width="527" height="39.5"/>
</g>
<g id="Layer_1">
	<circle style="fill:#C2B5D5;" cx="62.5" cy="67" r="46.5"/>
	<g>
		<path style="fill:#FFFFFF;" d="M56.3,64.3c0,0,6.1-0.5,6.1-7.6c0-7.2-5-10.6-11.3-10.6H39.4h-0.3h-8.8v40h8.8h0.3h11.6
			c0,0,12.7,0.4,12.7-11.8C63.8,74.3,64.3,64.3,56.3,64.3z M49.6,53.2h1.5c0,0,2.8,0,2.8,4.2c0,4.2-1.7,4.8-3.5,4.8H39.4v-8.9H49.6z
			 M50.5,79H39.4V68.3h11.6c0,0,4.2-0.1,4.2,5.5C55.3,78.4,52.1,78.9,50.5,79z"/>
		<path style="fill:#FFFFFF;" d="M80.7,56.3c-15.4,0-15.4,15.4-15.4,15.4s-1.1,15.3,15.4,15.3c0,0,13.7,0.8,13.7-10.6h-7
			c0,0,0.2,4.3-6.4,4.3c0,0-7,0.5-7-7h20.7C94.6,73.6,96.9,56.3,80.7,56.3z M73.8,68.3c0,0,0.9-6.2,7-6.2c6.2,0,6.1,6.2,6.1,6.2
			H73.8z"/>
		<rect x="72.1" y="48.4" style="fill:#FFFFFF;" width="16.5" height="4.9"/>
	</g>
	<g>
	</g>
	<g>
	</g>
	<g>
	</g>
	<g>
	</g>
	<g>
	</g>
	<g>
	</g>
</g>
</svg>
