<?xml version="1.0" encoding="utf-8"?>
<!-- Generator: Adobe Illustrator 23.1.0, SVG Export Plug-In . SVG Version: 6.00 Build 0)  -->
<svg version="1.1" id="Layer_1" xmlns="http://www.w3.org/2000/svg" xmlns:xlink="http://www.w3.org/1999/xlink" x="0px" y="0px"
	 viewBox="0 0 612 792" style="enable-background:new 0 0 612 792;" xml:space="preserve">
<style type="text/css">
	.st0{display:none;}
	.st1{display:inline;fill:none;stroke:#000000;stroke-width:0.3258;stroke-miterlimit:10;}
	.st2{fill:#C1B4D3;}
	.st3{fill:#FFFFFF;}
</style>
<g class="st0">
	<rect x="-50.6" y="310" class="st1" width="2665.5" height="199.8"/>
</g>
<g id="Layer_1_2_">
	<circle class="st2" cx="314.8" cy="398.6" r="235.2"/>
</g>
<path class="st3" d="M408.3,451l-8.6,27.7c-4.6,14.7-18.2,24.8-33.7,24.8h-65.9c-9.8,0-17.7-7.9-17.7-17.7v-74.3h47.7
	c12.5,0,22.7,10.1,22.7,22.7v5.8c0,1.7,1.4,3.1,3.1,3.1h9.8c1.7,0,3.1-1.4,3.1-3.1v-85.8c0-1.7-1.4-3.1-3.1-3.1H356
	c-1.7,0-3.1,1.4-3.1,3.1v9.1c0,12.5-10.1,22.7-22.7,22.7h-47.7v-74.4c0-9.8,7.9-17.7,17.7-17.7h62.6c16.2,0,29.3,13.1,29.3,29.3
	v17.6c0,1.7,1.4,3.1,3.1,3.1h11.4c1.6,0,3-1.3,3.1-2.9l4.8-60.6c0.3-4.2-3-7.8-7.2-7.8H208.6c-2.8,0-5,2.2-5,5v11.3c0,2.8,2.2,5,5,5
	h12.7c9.8,0,17.7,7.9,17.7,17.7v174.2c0,9.8-7.9,17.7-17.7,17.7h-12.7c-2.8,0-5,2.2-5,5v11.3c0,2.8,2.2,5,5,5h200.3
	c3.6,0,6.6-2.6,7.2-6.2l9.9-66.2c0.3-1.9-1.2-3.6-3.1-3.6h-11.5C410,448.7,408.8,449.6,408.3,451z"/>
</svg>
