<?xml version="1.0" encoding="utf-8"?>
<!-- Generator: Adobe Illustrator 23.1.0, SVG Export Plug-In . SVG Version: 6.00 Build 0)  -->
<svg version="1.1" id="Layer_1" xmlns="http://www.w3.org/2000/svg" xmlns:xlink="http://www.w3.org/1999/xlink" x="0px" y="0px"
	 viewBox="0 0 612 792" style="enable-background:new 0 0 612 792;" xml:space="preserve">
<style type="text/css">
	.st0{display:none;}
	.st1{display:inline;fill:none;stroke:#000000;stroke-width:0.3258;stroke-miterlimit:10;}
	.st2{fill:#C1B4D3;}
	.st3{fill:#FFFFFF;}
</style>
<g class="st0">
	<rect x="-50.6" y="310" class="st1" width="2665.5" height="199.8"/>
</g>
<g id="Layer_1_2_">
	<circle class="st2" cx="314.8" cy="398.6" r="235.2"/>
</g>
<path class="st3" d="M394.8,443.5l-7.4,23.7c-3.9,12.6-15.6,21.2-28.8,21.2h-56.4c-8.4,0-15.1-6.8-15.1-15.1v-63.6h40.8
	c10.7,0,19.4,8.6,19.4,19.4v5c0,1.5,1.2,2.7,2.7,2.7h8.4c1.5,0,2.7-1.2,2.7-2.7v-73.4c0-1.5-1.2-2.7-2.7-2.7h-8.3
	c-1.5,0-2.7,1.2-2.7,2.7v7.8c0,10.7-8.6,19.4-19.4,19.4h-40.8v-63.7c0-8.4,6.8-15.1,15.1-15.1h53.6c13.9,0,25.1,11.2,25.1,25.1v15.1
	c0,1.5,1.2,2.7,2.7,2.7h9.8c1.4,0,2.6-1.1,2.7-2.5l4.1-51.9c0.3-3.6-2.6-6.7-6.2-6.7h-170c-2.4,0-4.3,1.9-4.3,4.3v9.7
	c0,2.4,1.9,4.3,4.3,4.3h10.9c8.4,0,15.1,6.8,15.1,15.1v149.1c0,8.4-6.8,15.1-15.1,15.1h-10.9c-2.4,0-4.3,1.9-4.3,4.3v9.7
	c0,2.4,1.9,4.3,4.3,4.3h171.4c3.1,0,5.6-2.2,6.2-5.3l8.5-56.7c0.3-1.6-1-3.1-2.7-3.1h-9.8C396.3,441.5,395.2,442.3,394.8,443.5z"/>
</svg>
