<?xml version="1.0" encoding="utf-8"?>
<!-- Generator: Adobe Illustrator 18.0.0, SVG Export Plug-In . SVG Version: 6.00 Build 0)  -->
<!DOCTYPE svg PUBLIC "-//W3C//DTD SVG 1.1//EN" "http://www.w3.org/Graphics/SVG/1.1/DTD/svg11.dtd">
<svg version="1.1" xmlns="http://www.w3.org/2000/svg" xmlns:xlink="http://www.w3.org/1999/xlink" x="0px" y="0px"
	 viewBox="0 0 498 174" style="enable-background:new 0 0 498 174;" xml:space="preserve">
<g id="Layer_2" style="display:none;">
	
		<rect x="3" y="69.5" style="display:inline;fill:none;stroke:#000000;stroke-width:0.3258;stroke-miterlimit:10;" width="527" height="39.5"/>
</g>
<g id="Layer_1">
	<path style="fill:none;stroke:#000000;stroke-width:2.3893;stroke-linecap:round;stroke-linejoin:round;stroke-miterlimit:10;" d="
		M69.4,85c-0.8,5.6,19.1,13.1,27.7,2.2c9.3-11.8,21.3-38.8,12.5-45.3s-11.5,54.2-6.4,81.1c0.9,4.7,2.1,9.5,5.4,13
		c3.3,3.4,9.3,4.7,12.8,1.5c1.9-1.7,2.7-4.3,3.1-6.8c2.8-16.1-8.7-33.3-24.6-36.9"/>
	<path style="fill:none;stroke:#000000;stroke-width:2.3893;stroke-linecap:round;stroke-linejoin:round;stroke-miterlimit:10;" d="
		M120.7,79.4c-4.5,2.6-7.1,10.2-2.9,18.7c4,8.1,17.3,6.4,19.9,0c3.7-9-9.4-23.8-12.7-21.6c-4.3,2.9,2.5,11.3,15.9,9.3
		C157,83.4,156,42,150.3,41.7c-5.7-0.3-6.5,61.9,7.3,61.9c13.8,0,20.3-61.1,13.7-60.6c-9.4,0.6-5.2,58.2,2,60.6
		c4.8,1.6,8,0,12.3-10.7"/>
	<path style="fill:none;stroke:#000000;stroke-width:2.3893;stroke-linecap:round;stroke-linejoin:round;stroke-miterlimit:10;" d="
		M192.3,77.6c-11.2,10.9-6.8,26.5,4.6,26.5c13.1,0,17.9-27.2,4.1-29.2c-8.6-1.3-4.7,7.7,0,8.8c5.5,1.3,19.9-0.1,21.8-5
		c-1.5,5.9-0.9,17.2,3,21.9c0.7,0.8,1.5,1.7,2.5,1.9c2.5,0.7,4.6-1.9,5.7-4.2c2.4-4.7,4.8-14.5,5.7-19.7c0.9,4.8,1.9,14.2,4.5,18.4
		c1.1,1.8,2.3,3.5,4.2,4.5c1.8,1,4.3,1,5.8-0.4c0.8-0.8,1.3-2,1.6-3.1c1.6-5.5,2.5-16.2,1-21.7"/>
	<path style="fill:none;stroke:#000000;stroke-width:2.3893;stroke-linecap:round;stroke-linejoin:round;stroke-miterlimit:10;" d="
		M267.5,79.9c1.1-3.7,2.4-6,7-5.1c4.6,0.9,8.2,17.8,9.2,28.1c0.4-6.4-1.7-21.6,6-23.4c7.7-1.8,9.8,18.9,11.9,22
		c1.4-7.1,2.7-26.7,10.6-25.1c9.9,3.6,4.2,25.9,18.1,26.5c5.8-0.1,13.5-6.3,16.7-15.3c1.8-5.1,0.3-14.3-5.6-13.8
		c-5.5,0.5-12.1,24-2.9,28.6c4.8,2.4,22.4,3.3,26.8-11.1"/>
	<path style="fill:none;stroke:#000000;stroke-width:2.3893;stroke-linecap:round;stroke-linejoin:round;stroke-miterlimit:10;" d="
		M380.2,88.1c0,0,65.7-44.2,32.3,39.8"/>
	<path style="fill:none;stroke:#000000;stroke-width:2.3893;stroke-linecap:round;stroke-linejoin:round;stroke-miterlimit:10;" d="
		M404.9,110.2c2.7,4.4,5.1,12.5,6.7,19.3c6.3-3.9,6.3-3.9,18.5-9.7"/>
	<g>
	</g>
	<g>
	</g>
	<g>
	</g>
	<g>
	</g>
	<g>
	</g>
	<g>
	</g>
</g>
</svg>
