<?xml version="1.0" encoding="utf-8"?>
<!-- Generator: Adobe Illustrator 18.0.0, SVG Export Plug-In . SVG Version: 6.00 Build 0)  -->
<!DOCTYPE svg PUBLIC "-//W3C//DTD SVG 1.1//EN" "http://www.w3.org/Graphics/SVG/1.1/DTD/svg11.dtd">
<svg version="1.1" xmlns="http://www.w3.org/2000/svg" xmlns:xlink="http://www.w3.org/1999/xlink" x="0px" y="0px"
	 viewBox="0 0 498 174" style="enable-background:new 0 0 498 174;" xml:space="preserve">
<g id="Layer_2" style="display:none;">
	
		<rect x="3" y="69.5" style="display:inline;fill:none;stroke:#000000;stroke-width:0.3258;stroke-miterlimit:10;" width="527" height="39.5"/>
</g>
<g id="Layer_1">
	<path style="fill:none;stroke:#000000;stroke-width:2;stroke-linecap:round;stroke-linejoin:round;stroke-miterlimit:10;" d="
		M23.3,83.6c-1,7,24,16.5,34.8,2.8c11.7-14.8,26.8-48.7,15.7-56.9s-14.4,68-8,101.9c1.1,5.9,2.6,12,6.8,16.3
		c4.1,4.3,11.6,5.9,16,1.9c2.3-2.1,3.4-5.4,3.9-8.5c3.5-20.2-10.9-41.8-30.8-46.3"/>
	<path style="fill:none;stroke:#000000;stroke-width:2;stroke-linecap:round;stroke-linejoin:round;stroke-miterlimit:10;" d="
		M87.7,76.6c-5.7,3.3-8.9,12.7-3.7,23.5c5,10.2,21.7,8,25,0c4.7-11.3-11.8-29.9-16-27.1c-5.3,3.6,3.2,14.1,20,11.7
		c20.3-3,19-55.1,11.8-55.4c-7.2-0.4-8.2,77.7,9.2,77.7c17.3,0,25.5-76.7,17.2-76.1c-11.9,0.8-6.6,73.1,2.5,76.1c6,2,10,0,15.4-13.4
		"/>
	<path style="fill:none;stroke:#000000;stroke-width:2;stroke-linecap:round;stroke-linejoin:round;stroke-miterlimit:10;" d="
		M177.7,74.3c-14,13.7-8.6,33.3,5.8,33.3c16.5,0,22.5-34.1,5.2-36.7c-10.8-1.6-5.9,9.7,0,11c7,1.6,24.9-0.1,27.4-6.3
		c-1.9,7.4-1.1,21.6,3.7,27.4c0.9,1.1,1.9,2.1,3.2,2.4c3.1,0.8,5.8-2.4,7.2-5.3c3-5.9,6.1-18.2,7.2-24.7c1.2,6,2.4,17.9,5.6,23.1
		c1.3,2.2,2.9,4.4,5.2,5.6c2.3,1.2,5.4,1.3,7.2-0.5c1.1-1,1.6-2.5,2-3.9c2-6.9,3.1-20.3,1.3-27.2"/>
	<path style="fill:none;stroke:#000000;stroke-width:2;stroke-linecap:round;stroke-linejoin:round;stroke-miterlimit:10;" d="
		M272,77.2c1.4-4.6,3-7.5,8.8-6.4s10.3,22.4,11.6,35.2c0.5-8.1-2.1-27.1,7.6-29.4c9.7-2.2,12.3,23.7,15,27.6
		c1.7-8.9,3.4-33.5,13.4-31.6c12.5,4.5,5.2,32.5,22.7,33.3c7.3-0.1,17-8,21-19.2c2.3-6.4,0.3-18-7-17.3c-6.9,0.6-15.2,30.1-3.6,35.9
		c6.1,3,28.2,4.1,33.7-14"/>
	<path style="fill:none;stroke:#000000;stroke-width:2;stroke-linecap:round;stroke-linejoin:round;stroke-miterlimit:10;" d="
		M413.5,87.5c0,0,82.5-55.5,40.5,50"/>
	<path style="fill:none;stroke:#000000;stroke-width:2;stroke-linecap:round;stroke-linejoin:round;stroke-miterlimit:10;" d="
		M444.6,115.2c3.4,5.6,6.4,15.7,8.5,24.3c7.9-4.9,7.9-4.9,23.2-12.1"/>
	<g>
	</g>
	<g>
	</g>
	<g>
	</g>
	<g>
	</g>
	<g>
	</g>
	<g>
	</g>
</g>
</svg>
