<?xml version="1.0" encoding="utf-8"?>
<!-- Generator: Adobe Illustrator 23.0.2, SVG Export Plug-In . SVG Version: 6.00 Build 0)  -->
<svg version="1.1" id="Layer_1" xmlns="http://www.w3.org/2000/svg" xmlns:xlink="http://www.w3.org/1999/xlink" x="0px" y="0px"
	 viewBox="0 0 581.33 280" style="enable-background:new 0 0 581.33 280;" xml:space="preserve">
<style type="text/css">
	.st0{fill:#FFFFFF;}
</style>
<g>
	<path class="st0" d="M408.36,109.3c0-6.11,1.44-15.16-1.31-20.79c-5.87,4.53-9.72,12.67-12.58,19.33
		c-3.07,7.15-5.07,14.66-7.44,22.06c-1.59,4.99-3.69,11.95-10.49,9.94c-5.9-1.74-7.9-13.12-8.96-18.28
		c-1.7-8.28-2.14-16.85-1.71-25.28c0.2-3.94,0.68-7.85,1.24-11.75c0.26-1.83,2.61-9.66,1.53-11.01c-0.8-1.01-7.3,1.35-8.59,1.66
		c-4.18,1.02-8.37,2-12.62,2.69c-3.77,0.62-7.57,1.01-11.38,1.21c-1.08,0.06-2.89-0.33-3.14,0.78c-0.17,0.77,3.05,3.94,3.55,4.64
		c8.92,12.45,13.37,29.74,13.83,44.88c0.2,6.34,0.34,17.39-5.35,21.69c-5.03,3.81-10.62,0.45-13.32-4.2
		c-4.08-7.01-4.63-16.13-5.33-24.02c-0.75-8.33-0.99-16.69-1.71-25.02c-0.34-3.92-0.51-7.96-1.11-11.85
		c-0.08-0.48-0.43-3.78-1.2-3.86c-0.89-0.1-2.48,2.93-2.95,3.67c-4.32,6.82-6.84,14.87-8.8,22.64c-2.27,9-3.71,18.18-5.1,27.34
		c-0.7,4.57-1.43,9.12-2.33,13.66c-0.6,3.01-1.23,6.69-3.36,9.05c-5.65,6.23-13.38,1.1-16.95-4.31c-2.27-3.44-3.88-7.28-5.22-11.17
		c-1.29-3.76-1.71-9.15-3.85-12.46c-2.49,2.11-3.72,8.38-5.02,11.39c-1.84,4.27-3.87,9.17-7.04,12.66
		c-7.18,7.91-14.76,1.59-18.46-5.9c-8.81-17.8-9.1-39.32-8.26-58.74c0.44-10.07,1.33-20.21,2.48-30.23
		c0.55-4.75,1.21-9.48,1.93-14.21c0.74-4.91,0.76-11.12,2.58-15.75c1.15-2.93,5.27-4.14,6.85-0.83c1.81,3.81-0.13,11-0.56,15.02
		c-1.07,10.03-2.2,20.07-2.66,30.15c-0.89,19.32-2.15,39.53,2.68,58.43c1.2,4.71,2.74,9.32,4.34,13.91c0.81,2.33,1.7,9.12,5.02,6.71
		c3.05-2.22,4.74-7.55,6.1-10.85c2.07-5,3.84-10.14,6.03-15.09c3.64-8.22,1.36-17.4,0.8-26.22c-0.63-9.9,0.36-20.04,1.1-29.92
		c0.77-10.25,2.51-20.49,5.16-30.42c1.12-4.2,2.25-9.45,4.56-13.18c1.1-1.77,5.77-4.9,7.6-2.19c1.02,1.51-0.89,5.17-1.34,6.61
		c-0.85,2.75-1.59,5.52-2.23,8.33c-1.2,5.27-2.08,10.61-2.82,15.95c-1.56,11.28-1.94,22.59-2.19,33.96
		c-0.24,11.08,0.31,22.2,2.24,33.13c0.93,5.27,2.18,10.48,3.86,15.56c1.5,4.57,3.11,10.57,6.61,14.03c1.69-2.43,1.98-6.09,2.65-8.95
		c0.94-4.01,1.66-8.05,2.41-12.1c1.5-8.09,3.01-16.2,5.19-24.15c2.13-7.76,4.95-15.55,9.24-22.41c1.55-2.48,3.56-5.25,6.06-6.86
		c2.75-1.77,6.74-1.5,9.87-2.09c3.89-0.73,7.98-0.54,11.93-0.98c4.28-0.48,8.53-1.2,12.76-1.99c3.74-0.7,7.44-1.55,11.22-2.01
		c1.29-0.16,3.4,0.09,4.49-0.6c1.45-0.93,1.81-3.7,2.32-5.17c1.15-3.33,2.02-7.77,4.21-10.59c1.26-1.63,5.33-3.49,6.18-0.54
		c0.33,1.16-1.35,4.37-1.69,5.47c-0.54,1.74-1.03,3.5-1.48,5.27c-1.03,4.04-1.83,8.13-2.45,12.25c-1.33,8.79-2.2,18.03-1.87,26.94
		c0.17,4.67,0.59,9.35,1.41,13.96c0.6,3.39,1.02,8.6,3.21,11.38c1.59-1.72,2.07-5,2.82-7.18c0.88-2.57,1.74-5.14,2.66-7.69
		c2.06-5.65,4.41-11.2,7.53-16.35c2.74-4.51,15.93-22.86,21.5-12.49c2.16,4.02,1.51,10.24,1.53,14.64
		c0.04,6.51-0.21,13.06,0.07,19.56c0.2,4.87,0.96,10.69,3.86,14.79c3.77,5.32,8.07,3.14,10.51-2.11
		c4.69-10.12,2.46-22.88,0.06-33.26c-1.28-5.53-2.85-10.99-4.68-16.36c-0.87-2.54-6.16-11.89-3.4-13.85
		c6.82-4.85,12.55,19.56,13.49,23.19c2.99,11.5,5.14,24.4,2.2,36.12c-2.18,8.71-10.33,16.41-19.65,11.81
		c-4.81-2.37-7.01-7.59-8.05-12.57C408.73,125.81,408,109.3,408.36,109.3z M343.86,131.6c-0.37-8.24-1.56-16.18-3.87-24.12
		c-1.97-6.75-4.39-15.47-9.38-20.65c-0.72,3.3,0.21,7.16,0.5,10.53c0.32,3.81,0.63,7.61,0.89,11.43c0.48,7.14,0.9,14.29,1.91,21.38
		c0.44,3.12,0.94,6.25,1.8,9.29c0.47,1.68,1.95,7.68,3.97,8.43C343.39,149.28,343.83,133.99,343.86,131.6z"/>
	<path class="st0" d="M139.18,181.26c-0.01-10.23-3.13-20.49-7.25-29.78c-1.88-4.23-4.15-8.35-7.12-11.92
		c-1.62-1.95-3.48-3.71-5.35-5.42c-1.15-1.05-4.08-2.73-3.83-4.54c0.38-2.74,10.29-6.26,12.39-7.36c5.09-2.65,10.18-5.29,15.25-7.97
		c9.96-5.25,19.8-10.72,29.67-16.14c4.76-2.61,9.52-5.2,14.38-7.62c1.48-0.73,5.43-1.78,6.43-3.18c1.28-1.78-0.52-2.72,2.61-3.41
		c4.25-0.94,7.83,3.28,10.44,6.04c3.29,3.49,6.04,7.46,8.19,11.74c4.42,8.8,7.17,18.89,6.42,28.78
		c-0.65,8.58-4.27,18.76-14.14,19.64c-11.48,1.03-16.83-11.32-18.2-20.72c-0.9-6.2-0.48-12.37,0.15-18.58
		c0.33-3.24,0.71-6.47,1.28-9.67c0.47-2.64,1.45-5.36,1.36-8.05c-3.2,0.82-6.28,2.97-9.18,4.54c-3.9,2.11-7.78,4.23-11.67,6.35
		c-7.05,3.84-14.1,7.69-21.17,11.49c-7.06,3.8-14.18,7.47-21.31,11.13c-1.17,0.6-3.59,1.25-4.35,2.24
		c-0.93,1.22-0.71,0.94,0.35,2.14c2.59,2.91,5.66,5.15,8.02,8.35c8.48,11.5,14.03,27.08,14.17,41.39
		c0.12,11.88-3.71,31.92-19.68,30.14c-13.68-1.52-19.59-19.19-22.09-30.45c-3.39-15.32-3.92-31.02-2.93-46.62
		c0.24-3.77,0.5-7.54,0.78-11.31c0.29-3.96-1.52-2.89-5.06-2.54c-7.43,0.75-14.84,1.36-22.29,1.83
		c-13.68,0.86-27.9,3.13-38.68,12.38c-2.3,1.97-4.34,4.23-6.16,6.64c-1.13,1.5-3.75,7.23-5.8,7.48c-4.57,0.57,3.97-12.15,5.13-13.39
		c9.49-10.13,23.72-14.49,37.13-16.02c7.84-0.89,15.74-1.29,23.59-2.01c3.36-0.31,7.9,0.07,11.08-0.99c3.02-1.01,2.5-5.58,2.96-8.36
		c2.48-15.17,6.02-30.14,11.77-44.44c5.3-13.17,12.36-25.93,22.3-36.18c8.73-9,22.77-18.37,35.89-13.99
		c13.84,4.62,11.82,22.86,9.86,34.11c-2.49,14.34-9.19,27.08-18.73,37.97c-8.83,10.08-19.44,18.51-31.29,24.76
		c-6.24,3.29-12.66,5.59-19.44,7.45c-2.41,0.66-2.9,0.94-3.32,3.43c-0.65,3.89-0.84,7.96-1.09,11.89
		c-0.97,15.26-0.55,31.05,2.81,46.02c1.59,7.06,3.75,14.64,7.7,20.78c1.58,2.46,4.25,5.98,7.08,7.11c3.02,1.2,5.3-2.17,6.62-4.55
		C138.36,195.59,138.57,188.23,139.18,181.26z M177.94,34.57c0-6.7-1.1-17.18-9.5-18.55c-7.55-1.23-15.86,5.62-20.89,10.46
		c-12.43,11.95-20.22,28.47-25.57,44.61c-2.85,8.6-5.1,17.39-6.84,26.28c-0.87,4.42-2.31,9.4-2.37,13.91
		c-0.05,4.03,3.72,1.34,6.4,0.39c15.32-5.44,28.88-15.59,39.55-27.76C170.88,70.02,177.58,53.08,177.94,34.57z M214.3,126.64
		c-1.6-12.09-4.66-25.93-14.29-34.41c-3.04,6.3-3.46,15.16-3.85,22.09c-0.4,7.09-0.48,14.76,2.01,21.51
		c1.26,3.42,6.51,13.85,11.12,8.9C213.59,140.1,214.12,132.57,214.3,126.64z"/>
	<path class="st0" d="M217.44,249.61c0,4.39,1.32,11.26-0.46,15.37c-2.07,4.78-7.48,2.61-9.79-0.51
		c-7.52-10.15-14.28-21.13-20.2-32.29c-1.46-2.75-2.87-5.54-4.19-8.36c-0.73-1.57-3.75-6.75-3.1-8.57c0.59-1.66,2.83-2.38,4.51-1.72
		c2.3,0.91,3.26,4.66,4.34,6.73c5.82,11.19,12,23.91,20.32,33.46c1.2-8.14,0.47-16.54,1.4-24.76c0.86-7.6,2.32-15.15,4.59-22.47
		c4.15-13.4,11.2-28.56,24.6-34.88c5.94-2.8,13.11-3.36,17.37,2.4c4.54,6.14,5.21,15.07,6.1,22.4c0.97,8.01,1.39,16.09,1.89,24.14
		c0.26,4.13,0.46,8.26,0.61,12.4c0.14,3.62-0.21,7.92,0.8,11.41c1.98-1.73,3.08-5.07,4.51-7.32c1.72-2.72,3.59-5.38,5.77-7.76
		c3.73-4.08,9.13-7.92,14.95-7.44c6.59,0.55,10.71,6.84,15.02,11.09c4.17,4.12,8.68,7.26,14.62,8.05c5.31,0.7,10.96-0.28,15.73-2.71
		c1.55-0.79,4.67-2.29,5.39-4.07c0.88-2.15-1.37-6.57-1.6-9.01c-1.17-12.34,4.55-25.19,13.82-33.23c4.49-3.9,10.57-7.38,16.71-6.81
		c5.7,0.53,9.09,4.03,7.74,9.8c-2.64,11.26-16.63,17.46-26.87,19.31c-3.47,0.63-3.32,1.95-3.48,5.3c-0.15,3.13,0.06,6.29,0.84,9.33
		c1.41,5.49,4.67,10.92,9.79,13.63c2.21,1.17,5.09,2.21,7.61,1.86c3.09-0.43,6.03-3.29,8.32-5.27c5.11-4.41,9.51-9.65,14.33-14.37
		c9.3-9.13,19.84-17.5,31.97-22.53c6.15-2.55,13.06-4.52,19.77-4.49c1.82,0.01,6.89,0.03,8.04,1.85c1.89,2.99-4.73,1.66-5.91,1.63
		c-12.77-0.27-24.93,6.75-34.68,14.36c-10.49,8.19-18.51,19.03-28.87,27.24c-9.23,7.31-21.96,7.78-30.95-0.37
		c-0.88-0.8-1.67-2.1-2.63-2.75c-1.53-1.04-1.36-0.91-3.12,0.11c-2.87,1.67-5.68,3.06-8.93,3.9c-6.01,1.55-12.81,1.83-18.88,0.48
		c-6.28-1.4-11.58-5.11-16.02-9.65c-2.13-2.18-4.08-4.5-6.4-6.49c-3.29-2.83-4.62-1.8-7.74,1c-4.87,4.36-8.11,10.16-10.9,15.99
		c-2.12,4.43-4.03,13.11-9.78,13.9c-7.47,1.04-6.42-9.15-6.65-14.08c-0.33-7.28-0.59-14.57-0.89-21.85
		c-0.56-13.69,0.12-28.77-4.26-41.92c-0.78-2.34-1.87-6-4.17-7.27c-2.43-1.35-5.47,0.72-7.49,2.08c-4.99,3.35-8.73,8.6-11.63,13.77
		c-6.68,11.95-9.89,25.88-11.18,39.41C217.49,235.87,217.19,242.76,217.44,249.61z M371.81,193.4c0-7.81-7.89-2.45-11.06,0.21
		c-4.84,4.06-10.37,11.36-10.75,17.88C358.52,210.66,371.02,202.59,371.81,193.4z"/>
	<path class="st0" d="M538.47,124.49c0.14-11.02-1.9-24.17-11.73-30.86c-10.54-7.18-25.94-3.68-37.38-0.8
		c-6.03,1.52-11.99,3.41-17.55,6.22c-1.75,0.88-4.17,3.58-6.03,3.84c-3.83,0.55-1.45-3.22-0.01-4.46
		c8.64-7.51,23.31-9.87,34.24-11.6c11.61-1.83,24.73-2.27,34.66,5.07c8.67,6.41,11.78,17.6,12.39,27.91
		c1.5,25.52-13.1,47.79-27.72,67.38c-8.9,11.93-18.5,23.32-27.85,34.89c-4.58,5.67-9.14,11.35-13.31,17.34
		c-2.04,2.93-4,5.91-5.94,8.91c-1.62,2.51-3.3,4.26-2.99,7.29c4.56-1.82,8.64-5,13.2-7.01c5.41-2.38,11.05-4.23,16.72-5.88
		c5.37-1.57,10.82-3.06,16.3-4.24c0.9-0.19,6.85-1.42,7.03,0.31c0.19,1.76-4.1,2.5-5.22,2.84c-11.07,3.44-22.56,6.17-33.01,11.3
		c-4.44,2.18-8.44,4.86-12.19,8.08c-2.96,2.54-9.39,5.69-10.82,0.14c-1.31-5.09-0.77-11.49-1.21-16.73
		c-0.49-5.89-1.05-11.77-1.57-17.66c-0.17-1.91-0.99-5.29,0.72-6.83c1.19-1.07,2.85-0.92,3.94,0.19c1.38,1.4,1.54,4.34,1.88,6.19
		c0.7,3.74,1.26,7.5,1.93,11.24c0.27,1.52-0.09,3.36,1.54,2.86c1.19-0.36,2.97-4.61,3.78-5.75c3.6-5.06,7.59-9.91,11.46-14.77
		c7.11-8.91,14.52-17.58,21.58-26.52C520.36,174.35,539.54,150.22,538.47,124.49z"/>
</g>
</svg>
