<?xml version="1.0" encoding="utf-8"?>
<!-- Generator: Adobe Illustrator 18.1.1, SVG Export Plug-In . SVG Version: 6.00 Build 0)  -->
<!DOCTYPE svg PUBLIC "-//W3C//DTD SVG 1.1//EN" "http://www.w3.org/Graphics/SVG/1.1/DTD/svg11.dtd">
<svg version="1.1" id="Layer_1" xmlns="http://www.w3.org/2000/svg" xmlns:xlink="http://www.w3.org/1999/xlink" x="0px" y="0px"
	 viewBox="0 0 612 792" enable-background="new 0 0 612 792" xml:space="preserve">
<g id="Layer_2" display="none">
	
		<rect x="-50.6" y="310" display="inline" fill="none" stroke="#000000" stroke-width="0.3258" stroke-miterlimit="10" width="2665.5" height="199.8"/>
</g>
<g>
	<g id="Layer_1_3_">
		<circle fill="#C1B4D3" cx="316.1" cy="398.3" r="235.2"/>
	</g>
	<g>
		<g>
			<path fill="#FFFFFF" d="M364.3,510H268c-35.1,0-63.6-28.5-63.6-63.6v-96.3c0-35.1,28.5-63.6,63.6-63.6h96.3
				c35.1,0,63.6,28.5,63.6,63.6v96.3C427.9,481.5,399.3,510,364.3,510z M268,305.7c-24.5,0-44.5,19.9-44.5,44.5v96.3
				c0,24.5,19.9,44.5,44.5,44.5h96.3c24.5,0,44.5-19.9,44.5-44.5v-96.3c0-24.5-19.9-44.5-44.5-44.5H268z"/>
		</g>
		<g>
			<path fill="#FFFFFF" d="M316.1,455.5c-31.6,0-57.2-25.7-57.2-57.2c0-31.6,25.7-57.2,57.2-57.2c31.6,0,57.2,25.7,57.2,57.2
				C373.3,429.8,347.7,455.5,316.1,455.5z M316.1,360.2c-21,0-38.1,17.1-38.1,38.1s17.1,38.1,38.1,38.1c21,0,38.1-17.1,38.1-38.1
				S337.1,360.2,316.1,360.2z"/>
		</g>
		<g>
			<circle fill="#FFFFFF" cx="375.8" cy="337.8" r="13.8"/>
		</g>
	</g>
</g>
</svg>
