<?xml version="1.0" encoding="utf-8"?>
<!-- Generator: Adobe Illustrator 18.0.0, SVG Export Plug-In . SVG Version: 6.00 Build 0)  -->
<!DOCTYPE svg PUBLIC "-//W3C//DTD SVG 1.1//EN" "http://www.w3.org/Graphics/SVG/1.1/DTD/svg11.dtd">
<svg version="1.1" xmlns="http://www.w3.org/2000/svg" xmlns:xlink="http://www.w3.org/1999/xlink" x="0px" y="0px"
	 viewBox="0 0 121 133" style="enable-background:new 0 0 121 133;" xml:space="preserve">
<g id="Layer_2" style="display:none;">
	
		<rect x="-10" y="49.5" style="display:inline;fill:none;stroke:#000000;stroke-width:0.3258;stroke-miterlimit:10;" width="527" height="39.5"/>
</g>
<g id="Layer_1">
	<circle style="fill:#C2B5D5;" cx="62.5" cy="67" r="46.5"/>
	<path style="fill:#FFFFFF;" d="M44.1,41.7H81c3.5,0,6.4,2.9,6.4,6.4v36.9c0,3.5-2.9,6.4-6.4,6.4H44.1c-3.5,0-6.4-2.9-6.4-6.4V48.1
		C37.7,44.6,40.6,41.7,44.1,41.7z M73.8,47.2c-1.2,0-2.2,1-2.2,2.2v5.3c0,1.2,1,2.2,2.2,2.2h5.6c1.2,0,2.2-1,2.2-2.2v-5.3
		c0-1.2-1-2.2-2.2-2.2H73.8z M81.7,62.7h-4.4c0.4,1.4,0.6,2.8,0.6,4.3c0,8.3-6.9,14.9-15.4,14.9c-8.5,0-15.4-6.7-15.4-14.9
		c0-1.5,0.2-2.9,0.6-4.3h-4.6v21c0,1.1,0.9,2,2,2h34.6c1.1,0,2-0.9,2-2V62.7z M62.6,56.7c-5.5,0-10,4.3-10,9.7c0,5.3,4.5,9.7,10,9.7
		c5.5,0,10-4.3,10-9.7C72.5,61.1,68.1,56.7,62.6,56.7z"/>
	<g>
	</g>
	<g>
	</g>
	<g>
	</g>
	<g>
	</g>
	<g>
	</g>
	<g>
	</g>
</g>
</svg>
