<?xml version="1.0" encoding="utf-8"?>
<!-- Generator: Adobe Illustrator 25.0.1, SVG Export Plug-In . SVG Version: 6.00 Build 0)  -->
<svg version="1.1" id="Layer_1" xmlns="http://www.w3.org/2000/svg" xmlns:xlink="http://www.w3.org/1999/xlink" x="0px" y="0px"
	 viewBox="0 0 1653 390" style="enable-background:new 0 0 1653 390;" xml:space="preserve">
<style type="text/css">
	.st0{fill:#FFFFFF;}
</style>
<g>
	<g>
		<path class="st0" d="M927.15,356.68c-5.64-2.29-10.2-5.78-13.67-10.47c-3.47-4.69-5.21-10.55-5.21-17.58
			c0-5.84,1.7-10.91,5.09-15.21c3.39-4.3,8.21-6.96,14.44-7.99v-0.36c-4.97-3.71-7.46-8.32-7.46-13.85c0-5.21,1.89-9.39,5.68-12.54
			c3.79-3.16,8.99-4.74,15.62-4.74c4.74,0,8.72,1.05,11.96,3.14c3.23,2.09,4.85,5.15,4.85,9.17c0,2.53-0.73,4.7-2.19,6.51
			c-1.46,1.82-3.42,2.72-5.86,2.72c-1.5,0-2.78-0.39-3.85-1.18c-1.06-0.79-1.59-1.46-1.59-2.01c0-0.08,0.35-0.43,1.06-1.07
			c0.71-0.63,1.36-1.4,1.95-2.31c0.6-0.91,0.89-1.95,0.89-3.14c0-2.29-0.81-4.12-2.42-5.51c-1.62-1.38-3.65-2.07-6.1-2.07
			c-3.79,0-6.73,1.14-8.82,3.43c-2.09,2.29-3.14,5.13-3.14,8.52c0,5.76,2.41,9.94,7.22,12.55h3.91c1.26,0,2.11,0.14,2.55,0.41
			c0.43,0.28,0.69,1.08,0.77,2.43c0,0.79-0.2,1.46-0.6,2.01c-0.4,0.55-0.94,0.83-1.65,0.83h-4.14c-5.13,0.47-9.02,2.49-11.66,6.04
			c-2.65,3.55-3.97,7.65-3.97,12.31c0,5.05,1.18,9.47,3.55,13.26c2.37,3.79,5.66,6.71,9.88,8.76c4.22,2.05,9.01,3.08,14.38,3.08
			c5.76,0,11.04-1.2,15.86-3.61c4.81-2.41,8.64-5.72,11.48-9.94c2.84-4.22,4.26-8.97,4.26-14.26c0-4.58-1.26-8.56-3.79-11.95
			c-2.53-3.39-6-5.09-10.41-5.09c-2.29,0-4.52,0.65-6.69,1.95c-2.17,1.3-3.25,3.14-3.25,5.5c0,1.26,0.34,2.35,1.01,3.26
			c0.67,0.91,1.68,1.48,3.01,1.72c2.05,0.24,3.71-0.16,4.97-1.18c1.26-1.02,1.97-1.58,2.13-1.66c0.4,0.08,0.89,0.61,1.48,1.6
			c0.59,0.99,0.89,2.11,0.89,3.37c0,2.37-0.81,4.22-2.43,5.56c-1.62,1.34-3.6,2.01-5.97,2.01c-3,0-5.4-1.2-7.22-3.61
			s-2.72-5.51-2.72-9.29c0-5.68,1.5-10.02,4.5-13.02c3-3,6.55-5.03,10.65-6.1c4.1-1.07,9.43-1.99,15.98-2.78
			c5.76-0.55,9.98-1.26,12.66-2.13c1.73-0.63,3.18-1.52,4.32-2.66c1.14-1.14,1.72-2.43,1.72-3.85c0-2.37-1.46-3.75-4.38-4.14
			c-2.05-0.24-3.71,0.16-4.97,1.18c-1.26,1.03-1.97,1.58-2.13,1.66c-0.47-0.08-1.02-0.71-1.66-1.89c-0.63-1.18-0.83-2.52-0.59-4.03
			c0.31-2.21,1.26-3.87,2.84-4.97c1.58-1.1,3.43-1.66,5.56-1.66c1.73,0,3.2,0.28,4.38,0.83c1.89,0.87,3.27,2.25,4.14,4.14
			c0.87,1.89,1.3,3.98,1.3,6.27c0,4.26-1.36,7.99-4.08,11.19c-2.72,3.2-6.38,5.64-10.95,7.34c-4.58,1.7-9.63,2.55-15.15,2.55
			c6.79,5.76,10.18,12.43,10.18,20c0,7.26-1.76,13.61-5.27,19.05c-3.51,5.45-8.3,9.63-14.38,12.55c-6.08,2.92-12.86,4.38-20.36,4.38
			C938.92,360.11,932.79,358.97,927.15,356.68z"/>
	</g>
	<g>
		<path class="st0" d="M143.8,324.61v23.44c0,0.25-1.27,0.85-2.89,0.85c-2.55,0-4.76-1.27-4.76-7.05v-1.02
			c-3.4,5.43-9.77,8.75-18.26,8.75c-15.88,0-25.98-11.97-25.98-28.36c0-16.81,11.55-28.7,28.19-28.7c6.71,0,11.89,1.78,15.37,4.08
			c3.57,2.29,5.43,5.18,5.43,7.3c0,3.99-4.5,4.84-4.76,4.5c-3.4-5.43-9.77-8.32-15.88-8.32c-11.38,0-19.36,8.66-19.36,21.23
			c0,12.31,7.05,21.23,18.68,21.23c8.92,0,15.37-5.01,16.47-12.31v-3.48h-12.91c-2.97,0-4.42-0.94-4.42-3.31V323
			c0-2.46,1.44-3.4,4.42-3.4h15.96C142.27,319.61,143.8,321.56,143.8,324.61z"/>
		<path class="st0" d="M164.06,344.4v-45.85c0-2.97,1.87-4.92,4.67-4.92h15.62c13.42,0,20.55,5.6,20.55,16.47
			c0,8.24-4.5,13.84-12.91,15.63c-1.1,0.25-2.29,0.42-3.48,0.51l16.05,19.11c0.43,0.51-1.44,3.56-5.09,3.56
			c-2.29,0-3.82-0.93-5.69-3.4l-15.03-18.43h-6.03v17.83c0,2.38-1.27,3.99-3.82,3.99h-1.19C165.33,348.9,164.06,347.29,164.06,344.4
			z M184.18,320.2c8.07,0,11.89-3.74,11.89-9.68c0-6.37-4.08-9.68-12.14-9.68h-11.29v19.36H184.18z"/>
		<path class="st0" d="M219.53,346.35l19.53-50.44c0.68-1.78,2.04-2.8,6.03-2.8c4.08,0,5.35,1.02,6.03,2.8l19.7,50.44
			c0.25,0.68-2.21,2.63-4.84,2.63c-1.95,0-3.99-0.94-5.18-4.08l-4.84-12.48h-21.99L229.12,345c-1.1,3.06-2.97,3.99-4.84,3.99
			C221.73,348.99,219.27,347.12,219.53,346.35z M253.75,325.38l-8.83-23.26l-8.83,23.26H253.75z"/>
		<path class="st0" d="M286.81,344.91v-46.36c0-2.97,1.87-4.92,4.67-4.92h14.18c13.59,0,21.31,6.2,21.31,17.49
			c0,11.55-7.47,17.66-21.65,17.66h-9.76v16.13c0,2.38-1.27,3.99-3.82,3.99h-1.27C288.08,348.9,286.81,347.54,286.81,344.91z
			 M318.23,311.28c0-6.88-4.33-10.44-12.65-10.44h-10.1v20.89h10.02C313.9,321.73,318.23,318.08,318.23,311.28z"/>
		<path class="st0" d="M343.72,344.91v-47.64c0-2.63,1.27-3.99,3.65-3.99h1.27c2.55,0,3.82,1.36,3.82,3.99v19.95h28.96v-19.95
			c0-2.63,1.27-3.99,3.65-3.99h1.27c2.55,0,3.82,1.36,3.82,3.99v47.64c0,2.63-1.27,3.99-3.82,3.99h-1.27
			c-2.38,0-3.65-1.36-3.65-3.99v-20.04h-28.96v20.04c0,2.63-1.27,3.99-3.82,3.99h-1.27C344.99,348.9,343.72,347.54,343.72,344.91z"
			/>
		<path class="st0" d="M412.02,297.27c0-2.63,1.27-3.99,3.74-3.99h1.19c2.55,0,3.82,1.36,3.82,3.99v47.64
			c0,2.63-1.27,3.99-3.82,3.99h-1.19c-2.46,0-3.74-1.36-3.74-3.99V297.27z"/>
		<path class="st0" d="M467.82,292.52c6.88,0,12.06,1.95,15.54,4.42c3.48,2.38,5.18,5.26,5.18,7.22c0,4.08-4.92,5.1-5.09,4.76
			c-3.14-5.52-9.34-8.49-15.54-8.49c-11.12,0-18.94,8.41-18.94,20.64c0,12.14,8.07,20.72,19.11,20.72c7.39,0,13.59-3.65,15.88-9.6
			c0.17-0.43,5.43,0.59,5.43,4.67c0,2.04-1.78,5.26-5.43,7.9c-3.65,2.72-9.09,4.92-16.39,4.92c-16.3,0-27.68-11.72-27.68-28.45
			C439.88,304.41,451.34,292.52,467.82,292.52z"/>
		<path class="st0" d="M530.91,298.55c0-2.97,2.04-4.92,4.67-4.92H549c18.68,0,29.8,10.19,29.8,27.34c0,17.15-11.38,27.6-30.23,27.6
			h-12.82c-2.72,0-4.84-2.21-4.84-4.84V298.55z M569.97,321.05c0-12.48-7.9-19.87-21.14-19.87h-9.26v39.83h9.17
			C562.16,341.01,569.97,333.7,569.97,321.05z"/>
		<path class="st0" d="M597.51,343.72v-45.17c0-2.97,1.87-4.92,4.67-4.92h31.84c2.72,0,4.08,1.36,4.08,3.65v0.51
			c0,2.38-1.36,3.65-4.08,3.65h-27.77v15.37h21.48c2.8,0,4.08,1.19,4.08,3.48v0.25c0,2.38-1.36,3.65-4.08,3.65h-21.48v16.64h28.28
			c2.72,0,3.99,1.19,3.99,3.48v0.42c0,2.46-1.27,3.82-3.99,3.82h-32.35C599.38,348.56,597.51,346.69,597.51,343.72z"/>
		<path class="st0" d="M653.47,338.71c0-2.89,3.74-5.01,3.99-4.67c3.14,4.59,9,8.41,16.56,8.41c7.64,0,11.97-3.14,11.97-8.58
			c0-6.2-6.45-7.64-13.76-9.34c-8.49-1.95-17.32-4.92-17.32-16.05c0-9.34,8.07-15.96,19.79-15.96c7.22,0,12.48,2.04,15.54,4.5
			c2.21,1.7,3.31,3.65,3.31,5.26c0,3.14-3.91,5.1-4.08,4.84c-2.89-4.16-8.32-7.39-14.69-7.39c-6.88,0-11.38,3.31-11.38,8.41
			c0,6.03,5.35,6.96,12.99,8.75c9.34,2.12,18.34,5.77,18.34,16.39c0,10.1-7.81,16.39-20.64,16.39c-8.49,0-14.52-2.63-17.83-5.69
			C654.4,342.19,653.47,340.32,653.47,338.71z"/>
		<path class="st0" d="M713.78,297.27c0-2.63,1.27-3.99,3.74-3.99h1.19c2.55,0,3.82,1.36,3.82,3.99v47.64
			c0,2.63-1.27,3.99-3.82,3.99h-1.19c-2.46,0-3.74-1.36-3.74-3.99V297.27z"/>
		<path class="st0" d="M793.52,324.61v23.44c0,0.25-1.27,0.85-2.89,0.85c-2.55,0-4.76-1.27-4.76-7.05v-1.02
			c-3.4,5.43-9.77,8.75-18.26,8.75c-15.88,0-25.98-11.97-25.98-28.36c0-16.81,11.55-28.7,28.19-28.7c6.71,0,11.89,1.78,15.37,4.08
			c3.57,2.29,5.43,5.18,5.43,7.3c0,3.99-4.5,4.84-4.76,4.5c-3.4-5.43-9.77-8.32-15.88-8.32c-11.38,0-19.36,8.66-19.36,21.23
			c0,12.31,7.05,21.23,18.68,21.23c8.92,0,15.37-5.01,16.47-12.31v-3.48h-12.91c-2.97,0-4.42-0.94-4.42-3.31V323
			c0-2.46,1.44-3.4,4.42-3.4h15.96C791.99,319.61,793.52,321.56,793.52,324.61z"/>
		<path class="st0" d="M813.89,344.91v-46.7c0-2.97,1.44-4.92,4.16-4.92h1.44c2.63,0,3.65,1.11,5.26,3.31l27.17,38.55v-37.87
			c0-2.63,1.1-3.99,3.65-3.99h1.02c2.38,0,3.57,1.36,3.57,3.99v46.7c0,3.06-1.53,4.92-4.08,4.92h-0.68c-2.63,0-3.31-0.76-4.67-2.63
			l-28.62-40.5v39.15c0,2.63-1.19,3.99-3.74,3.99h-0.93C814.99,348.9,813.89,347.54,813.89,344.91z"/>
	</g>
	<g>
		<path class="st0" d="M1046.32,343.72v-46.45c0-2.72,1.27-3.99,3.65-3.99h1.27c2.55,0,3.82,1.27,3.82,3.99v43.39h23.86
			c2.63,0,4.07,1.27,4.07,3.74v0.34c0,2.46-1.44,3.82-4.07,3.82h-27.94C1048.18,348.56,1046.32,346.69,1046.32,343.72z"/>
		<path class="st0" d="M1099.52,343.72v-45.17c0-2.97,1.86-4.92,4.67-4.92h31.84c2.72,0,4.08,1.36,4.08,3.65v0.51
			c0,2.38-1.36,3.65-4.08,3.65h-27.77v15.37h21.48c2.8,0,4.08,1.19,4.08,3.48v0.25c0,2.38-1.36,3.65-4.08,3.65h-21.48v16.64h28.28
			c2.72,0,3.99,1.19,3.99,3.48v0.42c0,2.46-1.27,3.82-3.99,3.82h-32.35C1101.38,348.56,1099.52,346.69,1099.52,343.72z"/>
		<path class="st0" d="M1174.25,301.43h-15.03c-2.63,0-4.07-1.36-4.07-3.74v-0.42c0-2.38,1.44-3.65,4.07-3.65h38.9
			c2.63,0,3.99,1.27,3.99,3.65v0.42c0,2.38-1.36,3.74-3.99,3.74h-15.03v43.48c0,2.63-1.36,3.99-3.91,3.99h-1.19
			c-2.46,0-3.74-1.36-3.74-3.99V301.43z"/>
		<path class="st0" d="M1235.47,301.43h-15.03c-2.63,0-4.08-1.36-4.08-3.74v-0.42c0-2.38,1.44-3.65,4.08-3.65h38.89
			c2.63,0,3.99,1.27,3.99,3.65v0.42c0,2.38-1.36,3.74-3.99,3.74h-15.03v43.48c0,2.63-1.36,3.99-3.91,3.99h-1.19
			c-2.47,0-3.74-1.36-3.74-3.99V301.43z"/>
		<path class="st0" d="M1279.61,343.72v-45.17c0-2.97,1.86-4.92,4.67-4.92h31.84c2.72,0,4.08,1.36,4.08,3.65v0.51
			c0,2.38-1.36,3.65-4.08,3.65h-27.77v15.37h21.48c2.8,0,4.08,1.19,4.08,3.48v0.25c0,2.38-1.36,3.65-4.08,3.65h-21.48v16.64h28.28
			c2.72,0,3.99,1.19,3.99,3.48v0.42c0,2.46-1.27,3.82-3.99,3.82h-32.35C1281.47,348.56,1279.61,346.69,1279.61,343.72z"/>
		<path class="st0" d="M1337.7,344.4v-45.85c0-2.97,1.87-4.92,4.67-4.92h15.62c13.42,0,20.55,5.6,20.55,16.47
			c0,8.24-4.5,13.84-12.9,15.63c-1.11,0.25-2.29,0.42-3.49,0.51l16.05,19.11c0.42,0.51-1.44,3.56-5.1,3.56
			c-2.29,0-3.82-0.93-5.69-3.4l-15.03-18.43h-6.03v17.83c0,2.38-1.27,3.99-3.82,3.99h-1.19
			C1338.97,348.9,1337.7,347.29,1337.7,344.4z M1357.82,320.2c8.07,0,11.89-3.74,11.89-9.68c0-6.37-4.07-9.68-12.14-9.68h-11.29
			v19.36H1357.82z"/>
		<path class="st0" d="M1397.58,297.27c0-2.63,1.27-3.99,3.74-3.99h1.19c2.55,0,3.82,1.36,3.82,3.99v47.64
			c0,2.63-1.27,3.99-3.82,3.99h-1.19c-2.46,0-3.74-1.36-3.74-3.99V297.27z"/>
		<path class="st0" d="M1428.04,344.91v-46.7c0-2.97,1.44-4.92,4.16-4.92h1.44c2.63,0,3.65,1.11,5.27,3.31l27.17,38.55v-37.87
			c0-2.63,1.11-3.99,3.65-3.99h1.02c2.37,0,3.56,1.36,3.56,3.99v46.7c0,3.06-1.52,4.92-4.07,4.92h-0.68c-2.63,0-3.31-0.76-4.67-2.63
			l-28.62-40.5v39.15c0,2.63-1.19,3.99-3.74,3.99h-0.94C1429.14,348.9,1428.04,347.54,1428.04,344.91z"/>
		<path class="st0" d="M1545.08,324.61v23.44c0,0.25-1.27,0.85-2.89,0.85c-2.55,0-4.75-1.27-4.75-7.05v-1.02
			c-3.4,5.43-9.76,8.75-18.26,8.75c-15.88,0-25.98-11.97-25.98-28.36c0-16.81,11.55-28.7,28.19-28.7c6.71,0,11.89,1.78,15.37,4.08
			c3.57,2.29,5.43,5.18,5.43,7.3c0,3.99-4.5,4.84-4.75,4.5c-3.4-5.43-9.76-8.32-15.88-8.32c-11.38,0-19.36,8.66-19.36,21.23
			c0,12.31,7.05,21.23,18.68,21.23c8.92,0,15.37-5.01,16.47-12.31v-3.48h-12.91c-2.97,0-4.41-0.94-4.41-3.31V323
			c0-2.46,1.44-3.4,4.41-3.4h15.96C1543.55,319.61,1545.08,321.56,1545.08,324.61z"/>
	</g>
	<g>
		<path class="st0" d="M200.57,50.14c1.44,1.57,2.56,3.47,3.34,5.7c0.79,2.23,1.18,4.46,1.18,6.68c-4.46,0-7.77,0.79-9.93,2.36
			c-2.16,1.57-3.24,4.13-3.24,7.67v92.41c0,3.67,1.01,6.23,3.05,7.67c2.03,1.44,5.41,2.16,10.13,2.16c0,2.36-0.39,4.66-1.18,6.88
			c-0.79,2.23-1.9,4.13-3.34,5.7h-48.76c-1.31-1.57-2.36-3.47-3.15-5.7c-0.79-2.23-1.18-4.52-1.18-6.88c4.59,0,7.99-0.75,10.22-2.26
			c2.23-1.5,3.34-4.03,3.34-7.57v-81.4l-33.42,84.35c-1.7,4.07-4.06,6.85-7.08,8.35c-3.02,1.51-6.95,2.26-11.8,2.26L69.82,83.56
			v81.4c0,3.54,1.28,6.06,3.83,7.57c2.56,1.51,6.46,2.26,11.7,2.26c0,2.36-0.39,4.66-1.18,6.88c-0.79,2.23-1.84,4.13-3.15,5.7H40.14
			c-1.31-1.57-2.36-3.47-3.15-5.7c-0.79-2.23-1.18-4.52-1.18-6.88c4.85,0,8.39-0.75,10.62-2.26c2.23-1.5,3.34-4.03,3.34-7.57V72.55
			c0-3.54-1.18-6.09-3.54-7.67c-2.36-1.57-5.83-2.36-10.42-2.36c0-2.23,0.39-4.45,1.18-6.68c0.79-2.23,1.9-4.13,3.34-5.7H71.2
			c6.16,0,11.08,0.88,14.75,2.65c3.67,1.77,6.62,5.28,8.85,10.52l20.84,51.32l7.86,24.38l7.47-24.38l24.77-64.49H200.57z"/>
		<path class="st0" d="M225.15,138.81c5.77-5.11,14.28-7.67,25.56-7.67c3.93,0,7.96,0.39,12.09,1.18c4.13,0.79,7.5,1.84,10.13,3.15
			v-26.15c0-5.24-1.31-9.01-3.93-11.3c-2.62-2.29-6.16-3.44-10.62-3.44c-4.33,0-7.86,1.05-10.62,3.14c2.49,0.79,4.36,2.13,5.6,4.03
			c1.24,1.9,1.87,4.03,1.87,6.39c0,4.2-1.51,7.6-4.52,10.22c-3.02,2.62-6.82,3.93-11.4,3.93c-4.98,0-8.98-1.44-11.99-4.33
			c-3.02-2.88-4.52-6.62-4.52-11.21c0-4.59,1.57-8.91,4.72-12.98c3.15-4.06,7.96-7.34,14.45-9.83c6.49-2.49,14.52-3.74,24.09-3.74
			c12.98,0,22.81,2.65,29.49,7.96c6.68,5.31,10.03,13.08,10.03,23.3v52.1c0,6.29,3.01,10.09,9.04,11.4v6.29
			c-1.7,2.36-4.52,4.2-8.45,5.51c-3.93,1.31-7.93,1.97-11.99,1.97c-8.91,0-15.21-3.08-18.87-9.24c-3.02,2.62-6.68,4.81-11.01,6.59
			c-4.32,1.77-9.24,2.65-14.75,2.65c-9.83,0-17.79-2.72-23.89-8.16c-6.09-5.44-9.14-12.41-9.14-20.94
			C216.5,150.87,219.38,143.92,225.15,138.81z M272.92,150.61c-1.44-0.91-3.18-1.7-5.21-2.36c-2.03-0.65-3.97-0.98-5.8-0.98
			c-3.67,0-6.68,1.15-9.04,3.44c-2.36,2.3-3.54,5.6-3.54,9.93c0,3.54,1.18,6.46,3.54,8.75c2.36,2.29,5.51,3.44,9.44,3.44
			c1.97,0,3.9-0.3,5.8-0.89c1.9-0.59,3.5-1.34,4.82-2.26V150.61z"/>
		<path class="st0" d="M428.18,182.46c-1.84,2.36-4.59,4.2-8.26,5.5c-3.67,1.31-7.6,1.97-11.8,1.97c-3.8,0-7.54-0.82-11.21-2.46
			c-3.67-1.64-6.23-3.9-7.67-6.78c-2.62,3.41-5.87,5.8-9.73,7.17c-3.87,1.38-8.68,2.07-14.45,2.07c-7.34,0-14.09-1.87-20.25-5.61
			c-6.16-3.74-11.11-9.3-14.84-16.71c-3.74-7.4-5.6-16.48-5.6-27.23c0-12.71,2.39-23.52,7.18-32.44
			c4.78-8.91,11.11-15.6,18.97-20.05c7.86-4.46,16.52-6.68,25.95-6.68c2.23,0,6.22,0.26,11.99,0.79l-0.59-11.8v-9.83
			c0-3.27-0.92-5.7-2.75-7.27c-1.84-1.57-5.31-2.36-10.42-2.36v-8.06c4.59-2.49,10.55-4.72,17.89-6.68
			c7.34-1.97,13.11-2.95,17.3-2.95c3.01,0,5.21,0.69,6.59,2.07c1.38,1.38,2.07,3.7,2.07,6.98v123.47c0,6.42,3.15,10.22,9.44,11.4
			L428.18,182.46z M387.88,169.68v-68.81c-2.75-3.8-6.42-5.7-11.01-5.7c-5.77,0-10.39,3.01-13.86,9.04
			c-3.47,6.03-5.21,15.8-5.21,29.3c0,12.98,1.93,22.84,5.8,29.59c3.87,6.75,8.88,10.12,15.04,10.12
			C382.7,173.22,385.78,172.04,387.88,169.68z"/>
		<path class="st0" d="M518.17,159.46c1.05,1.05,1.97,2.62,2.75,4.72c0.79,2.1,1.18,3.93,1.18,5.5c0,2.36-1.57,5.08-4.72,8.16
			c-3.15,3.08-7.5,5.74-13.07,7.96c-5.57,2.23-11.83,3.34-18.78,3.34c-9.7,0-18.19-2.1-25.46-6.29
			c-7.27-4.19-12.88-10.29-16.81-18.28c-3.93-7.99-5.9-17.43-5.9-28.31c0-11.14,2.13-20.91,6.39-29.3
			c4.26-8.39,10.13-14.85,17.6-19.37c7.47-4.52,15.93-6.78,25.36-6.78c11.93,0,21.43,3.47,28.51,10.42
			c7.08,6.95,10.62,16.58,10.62,28.9c0,5.77-0.92,10.32-2.75,13.66c-1.84,3.34-5.11,5.01-9.83,5.01h-42.47
			c0.79,19.01,8.91,28.51,24.38,28.51C503.42,167.32,511.09,164.7,518.17,159.46z M475.31,101.16c-2.75,4.52-4.26,12.09-4.52,22.71
			h19.86c2.1,0,3.47-0.72,4.13-2.16c0.65-1.44,0.98-3.67,0.98-6.68c0-7.73-0.92-13.11-2.75-16.12c-1.84-3.01-4.32-4.52-7.47-4.52
			C481.47,94.38,478.06,96.64,475.31,101.16z"/>
		<path class="st0" d="M547.34,61.54c0-3.27-0.95-5.73-2.85-7.37c-1.9-1.64-5.41-2.46-10.52-2.46v-7.86
			c4.72-2.62,10.68-4.85,17.89-6.68c7.21-1.84,13.04-2.75,17.5-2.75c3.15,0,5.37,0.66,6.69,1.97c1.31,1.31,1.97,3.6,1.97,6.88
			v122.68c0,4.07,0.82,6.88,2.46,8.46c1.64,1.57,4.42,2.36,8.36,2.36c0,3.67-1.57,7.21-4.72,10.62h-43.06
			c-3.02-3.27-4.52-6.81-4.52-10.62c3.8,0,6.55-0.82,8.26-2.46c1.7-1.64,2.56-4.42,2.56-8.36V61.54z"/>
		<path class="st0" d="M679.46,159.46c1.05,1.05,1.97,2.62,2.75,4.72c0.79,2.1,1.18,3.93,1.18,5.5c0,2.36-1.57,5.08-4.72,8.16
			c-3.15,3.08-7.5,5.74-13.07,7.96c-5.57,2.23-11.83,3.34-18.78,3.34c-9.7,0-18.19-2.1-25.46-6.29
			c-7.27-4.19-12.88-10.29-16.81-18.28c-3.93-7.99-5.9-17.43-5.9-28.31c0-11.14,2.13-20.91,6.39-29.3
			c4.26-8.39,10.13-14.85,17.6-19.37c7.47-4.52,15.93-6.78,25.36-6.78c11.93,0,21.43,3.47,28.51,10.42
			c7.08,6.95,10.62,16.58,10.62,28.9c0,5.77-0.92,10.32-2.75,13.66c-1.84,3.34-5.11,5.01-9.83,5.01h-42.47
			c0.79,19.01,8.91,28.51,24.38,28.51C664.72,167.32,672.39,164.7,679.46,159.46z M636.6,101.16c-2.75,4.52-4.26,12.09-4.52,22.71
			h19.86c2.1,0,3.47-0.72,4.13-2.16c0.65-1.44,0.98-3.67,0.98-6.68c0-7.73-0.92-13.11-2.75-16.12c-1.84-3.01-4.32-4.52-7.47-4.52
			C642.76,94.38,639.36,96.64,636.6,101.16z"/>
		<path class="st0" d="M743.68,166.14c0,3.8,0.95,6.52,2.85,8.16c1.9,1.64,4.82,2.46,8.75,2.46c0,4.07-1.51,7.6-4.52,10.62h-44.43
			c-3.02-3.01-4.52-6.55-4.52-10.62c3.93,0,6.78-0.82,8.55-2.46c1.77-1.64,2.65-4.42,2.65-8.36v-57.02c0-3.67-0.89-6.29-2.65-7.86
			c-1.77-1.57-5.21-2.36-10.32-2.36v-8.65c3.15-1.97,8.49-4.03,16.02-6.2c7.54-2.16,13.93-3.24,19.17-3.24
			c3.01,0,5.18,0.69,6.49,2.07c1.31,1.38,1.97,3.7,1.97,6.98V166.14z M742.2,61.84c-3.47,3.34-8.09,5.01-13.86,5.01
			c-5.64,0-10.13-1.67-13.47-5.01c-3.34-3.34-5.01-7.83-5.01-13.47c0-5.51,1.73-9.96,5.21-13.37c3.47-3.41,8.03-5.11,13.66-5.11
			c5.63,0,10.16,1.7,13.57,5.11c3.41,3.41,5.11,7.86,5.11,13.37C747.41,54.01,745.68,58.5,742.2,61.84z"/>
		<path class="st0" d="M881.05,182.06c-1.97,1.97-5.48,3.54-10.52,4.72c-5.05,1.18-9.86,1.77-14.45,1.77
			c-5.64,0-9.8-1.05-12.48-3.14c-2.69-2.1-4.03-5.44-4.03-10.03v-61.34c0-5.11-1.12-8.78-3.34-11.01c-2.23-2.23-5.18-3.34-8.85-3.34
			c-5.38,0-9.9,2.16-13.57,6.49v59.96c0,3.8,0.82,6.56,2.46,8.26c1.64,1.7,4.42,2.55,8.36,2.55c0,3.94-1.51,7.41-4.52,10.42h-44.63
			c-3.15-3.15-4.72-6.62-4.72-10.42c3.93,0,6.75-0.85,8.45-2.55c1.7-1.7,2.56-4.46,2.56-8.26v-57.41c0-3.54-0.98-6.06-2.95-7.57
			c-1.97-1.51-5.38-2.26-10.22-2.26v-8.85c4.19-2.36,10.13-4.52,17.79-6.49c7.67-1.97,13.47-2.95,17.4-2.95
			c3.01,0,5.34,0.95,6.98,2.85c1.64,1.9,2.59,5.48,2.85,10.71c3.41-4.19,7.67-7.5,12.78-9.93c5.11-2.42,10.88-3.64,17.3-3.64
			c9.44,0,16.42,2.39,20.94,7.18c4.52,4.79,6.78,12.61,6.78,23.49v53.67c0,6.42,3.15,10.22,9.44,11.4L881.05,182.06z"/>
		<path class="st0" d="M973.91,159.46c1.05,1.05,1.97,2.62,2.75,4.72c0.79,2.1,1.18,3.93,1.18,5.5c0,2.36-1.57,5.08-4.72,8.16
			c-3.15,3.08-7.51,5.74-13.08,7.96c-5.57,2.23-11.83,3.34-18.77,3.34c-9.7,0-18.19-2.1-25.46-6.29
			c-7.28-4.19-12.88-10.29-16.81-18.28c-3.93-7.99-5.9-17.43-5.9-28.31c0-11.14,2.13-20.91,6.39-29.3
			c4.26-8.39,10.13-14.85,17.6-19.37c7.47-4.52,15.93-6.78,25.36-6.78c11.92,0,21.43,3.47,28.51,10.42
			c7.08,6.95,10.62,16.58,10.62,28.9c0,5.77-0.92,10.32-2.75,13.66c-1.84,3.34-5.11,5.01-9.83,5.01h-42.47
			c0.79,19.01,8.91,28.51,24.38,28.51C959.17,167.32,966.84,164.7,973.91,159.46z M931.05,101.16c-2.75,4.52-4.26,12.09-4.52,22.71
			h19.86c2.1,0,3.47-0.72,4.13-2.16s0.98-3.67,0.98-6.68c0-7.73-0.92-13.11-2.75-16.12s-4.32-4.52-7.47-4.52
			C937.21,94.38,933.81,96.64,931.05,101.16z"/>
		<path class="st0" d="M1072.61,181.28c-10.22-5.9-18.09-14.09-23.59-24.57c-5.51-10.49-8.26-22.48-8.26-35.98
			c0-15.73,2.72-29.03,8.16-39.91c5.44-10.88,13.01-19.07,22.71-24.57c9.7-5.51,20.91-8.26,33.62-8.26c8.26,0,16.19,1.44,23.79,4.32
			c1.97-0.91,4.82-1.83,8.55-2.75c3.74-0.91,6.65-1.44,8.75-1.57c3.8,9.7,5.7,24.51,5.7,44.43h-19.07
			c-1.31-8.39-4.56-14.88-9.73-19.46c-5.18-4.59-11.37-6.88-18.58-6.88c-8.65,0-15.43,3.71-20.35,11.11
			c-4.91,7.41-7.37,20.22-7.37,38.44c0,20.18,2.42,34.47,7.28,42.86c4.85,8.39,12.25,12.58,22.22,12.58c3.67,0,6.75-0.39,9.24-1.18
			c2.49-0.79,4.59-2.1,6.29-3.94v-22.41c0-3.41-1.47-5.87-4.42-7.37c-2.95-1.51-7.57-2.26-13.86-2.26c0-2.36,0.46-5.11,1.37-8.26
			c0.92-3.14,2.03-5.44,3.34-6.88h42.47c5.11,0,8.65,1.51,10.62,4.52c1.97,3.02,2.95,5.9,2.95,8.65c0,1.31-0.33,2.49-0.98,3.54
			c-4.72,0-8.39,0.53-11.01,1.57v22.61c0,4.2,0.72,7.14,2.16,8.85c0.91,0.92,1.37,2.1,1.37,3.54c0,2.36-2.16,4.98-6.49,7.86
			c-4.33,2.89-10.13,5.31-17.4,7.27c-7.28,1.97-15.11,2.95-23.49,2.95C1094.83,190.13,1082.83,187.18,1072.61,181.28z"/>
		<path class="st0" d="M1186.9,138.81c5.77-5.11,14.28-7.67,25.56-7.67c3.93,0,7.96,0.39,12.09,1.18c4.13,0.79,7.5,1.84,10.13,3.15
			v-26.15c0-5.24-1.31-9.01-3.93-11.3c-2.62-2.29-6.16-3.44-10.62-3.44c-4.33,0-7.86,1.05-10.62,3.14c2.49,0.79,4.36,2.13,5.61,4.03
			c1.24,1.9,1.87,4.03,1.87,6.39c0,4.2-1.51,7.6-4.52,10.22c-3.02,2.62-6.82,3.93-11.4,3.93c-4.98,0-8.98-1.44-11.99-4.33
			c-3.02-2.88-4.52-6.62-4.52-11.21c0-4.59,1.57-8.91,4.72-12.98c3.15-4.06,7.96-7.34,14.45-9.83c6.49-2.49,14.52-3.74,24.09-3.74
			c12.98,0,22.81,2.65,29.49,7.96c6.68,5.31,10.03,13.08,10.03,23.3v52.1c0,6.29,3.01,10.09,9.04,11.4v6.29
			c-1.7,2.36-4.52,4.2-8.45,5.51c-3.93,1.31-7.93,1.97-11.99,1.97c-8.91,0-15.21-3.08-18.88-9.24c-3.02,2.62-6.68,4.81-11.01,6.59
			c-4.32,1.77-9.24,2.65-14.75,2.65c-9.83,0-17.79-2.72-23.89-8.16c-6.1-5.44-9.14-12.41-9.14-20.94
			C1178.25,150.87,1181.13,143.92,1186.9,138.81z M1234.68,150.61c-1.44-0.91-3.18-1.7-5.21-2.36c-2.04-0.65-3.97-0.98-5.8-0.98
			c-3.67,0-6.68,1.15-9.04,3.44c-2.36,2.3-3.54,5.6-3.54,9.93c0,3.54,1.18,6.46,3.54,8.75c2.36,2.29,5.51,3.44,9.44,3.44
			c1.97,0,3.9-0.3,5.8-0.89c1.9-0.59,3.5-1.34,4.82-2.26V150.61z"/>
		<path class="st0" d="M1374.63,173.12c8.32,4.92,12.48,12.16,12.48,21.73c0,6.68-2.49,12.81-7.47,18.38
			c-4.98,5.57-11.57,9.96-19.76,13.17c-8.19,3.21-16.94,4.81-26.25,4.81c-15.6,0-27.26-2.79-35-8.35
			c-7.73-5.57-11.6-13.01-11.6-22.32c0-4.85,1.6-9.27,4.82-13.27c3.21-4,7.83-6.98,13.86-8.94c-2.62-1.83-4.36-4-5.21-6.49
			c-0.85-2.49-1.28-5.57-1.28-9.24c0-2.36,0.92-4.75,2.75-7.18c1.83-2.42,4.39-4.23,7.67-5.41c-6.16-3.27-10.98-7.8-14.45-13.57
			c-3.47-5.77-5.21-11.99-5.21-18.68c0-6.81,1.67-12.94,5.01-18.38c3.34-5.44,8.26-9.76,14.75-12.98
			c6.49-3.21,14.38-4.82,23.69-4.82h0.2c4.72,0,8.78,0.33,12.19,0.98c12.32,0,20.81-0.16,25.46-0.49c4.65-0.33,9.14-0.82,13.47-1.47
			c1.31,0,2.33,0.88,3.05,2.65c0.72,1.77,1.08,3.64,1.08,5.6c0,5.9-2.56,8.85-7.67,8.85c-1.18,0-4.79-1.18-10.81-3.54
			c-1.05-0.52-2.62-1.18-4.72-1.97c4.33,3.54,7.67,7.57,10.03,12.09c2.36,4.52,3.54,8.88,3.54,13.08c0,12.19-4.16,21.53-12.48,28.02
			c-8.32,6.49-19.95,9.73-34.9,9.73c-3.67,0-7.8-0.46-12.39-1.37v0.59c0,3.15,1.24,5.41,3.74,6.78c2.49,1.37,7.01,2.33,13.57,2.85
			C1353.69,165.16,1366.3,168.2,1374.63,173.12z M1353.49,210.77c2.88-2.89,4.33-6.49,4.33-10.81c0-3.94-2.39-6.85-7.18-8.75
			c-4.78-1.9-12.29-3.71-22.51-5.41l-8.85-1.77c-1.7,2.88-2.56,6.68-2.56,11.4c0,6.03,1.83,10.81,5.51,14.35
			c3.67,3.54,9.63,5.31,17.89,5.31C1346.15,215.09,1350.6,213.65,1353.49,210.77z M1326.26,101.06c-1.77,4.33-2.65,10.61-2.65,18.87
			c0,14.81,3.86,22.22,11.6,22.22c4.19,0,7.21-2.23,9.05-6.68c1.83-4.46,2.75-11.27,2.75-20.45c0-7.21-0.98-12.42-2.95-15.63
			c-1.97-3.21-4.91-4.82-8.85-4.82C1331.01,94.57,1328.03,96.74,1326.26,101.06z"/>
		<path class="st0" d="M1516.66,182.06c-1.97,1.97-5.48,3.54-10.52,4.72c-5.05,1.18-9.86,1.77-14.45,1.77
			c-5.64,0-9.8-1.05-12.48-3.14c-2.69-2.1-4.03-5.44-4.03-10.03v-61.34c0-5.11-1.12-8.78-3.34-11.01c-2.23-2.23-5.18-3.34-8.85-3.34
			c-5.38,0-9.9,2.16-13.57,6.49v59.96c0,3.8,0.82,6.56,2.46,8.26c1.64,1.7,4.42,2.55,8.36,2.55c0,3.94-1.51,7.41-4.52,10.42h-44.63
			c-3.15-3.15-4.72-6.62-4.72-10.42c3.93,0,6.75-0.85,8.45-2.55c1.7-1.7,2.56-4.46,2.56-8.26v-57.41c0-3.54-0.98-6.06-2.95-7.57
			c-1.97-1.51-5.38-2.26-10.22-2.26v-8.85c4.19-2.36,10.13-4.52,17.79-6.49c7.67-1.97,13.47-2.95,17.4-2.95
			c3.01,0,5.34,0.95,6.98,2.85c1.64,1.9,2.59,5.48,2.85,10.71c3.41-4.19,7.67-7.5,12.78-9.93c5.11-2.42,10.88-3.64,17.3-3.64
			c9.44,0,16.42,2.39,20.94,7.18c4.52,4.79,6.78,12.61,6.78,23.49v53.67c0,6.42,3.15,10.22,9.44,11.4L1516.66,182.06z"/>
		<path class="st0" d="M1609.52,159.46c1.05,1.05,1.97,2.62,2.75,4.72c0.79,2.1,1.18,3.93,1.18,5.5c0,2.36-1.57,5.08-4.72,8.16
			c-3.15,3.08-7.51,5.74-13.08,7.96c-5.57,2.23-11.83,3.34-18.78,3.34c-9.7,0-18.19-2.1-25.46-6.29
			c-7.28-4.19-12.88-10.29-16.81-18.28c-3.93-7.99-5.9-17.43-5.9-28.31c0-11.14,2.13-20.91,6.39-29.3
			c4.26-8.39,10.13-14.85,17.6-19.37c7.47-4.52,15.93-6.78,25.36-6.78c11.93,0,21.43,3.47,28.51,10.42s10.62,16.58,10.62,28.9
			c0,5.77-0.92,10.32-2.75,13.66c-1.83,3.34-5.11,5.01-9.83,5.01h-42.47c0.79,19.01,8.91,28.51,24.38,28.51
			C1594.77,167.32,1602.44,164.7,1609.52,159.46z M1588.94,35.08c1.76,1.1,3.12,2.49,4.1,4.16c0.97,1.67,1.45,3.26,1.45,4.75
			c0,3-1.81,6.21-5.42,9.65c-3.61,3.44-7.82,6.37-12.62,8.79c-4.8,2.42-8.74,3.63-11.83,3.63c-1.85,0-3.42-0.51-4.69-1.52
			c-1.28-1.01-2.05-2.53-2.31-4.56c4.76-3.08,9.49-7,14.2-11.76c4.71-4.76,8.44-9.69,11.17-14.8
			C1585.19,33.43,1587.17,33.98,1588.94,35.08z M1566.66,101.16c-2.75,4.52-4.26,12.09-4.52,22.71h19.86c2.1,0,3.47-0.72,4.13-2.16
			c0.66-1.44,0.98-3.67,0.98-6.68c0-7.73-0.92-13.11-2.75-16.12c-1.84-3.01-4.32-4.52-7.47-4.52
			C1572.82,94.38,1569.41,96.64,1566.66,101.16z"/>
	</g>
</g>
</svg>
