<?xml version="1.0" encoding="utf-8"?>
<!-- Generator: Adobe Illustrator 23.0.2, SVG Export Plug-In . SVG Version: 6.00 Build 0)  -->
<svg version="1.1" id="Layer_1" xmlns="http://www.w3.org/2000/svg" xmlns:xlink="http://www.w3.org/1999/xlink" x="0px" y="0px"
	 viewBox="0 0 308.44 234.67" style="enable-background:new 0 0 308.44 234.67;" xml:space="preserve">
<style type="text/css">
	.st0{fill:#FFFFFF;}
</style>
<g>
	<path class="st0" d="M220.09,100.75c-0.61,1.25-1.06,2.2-2.14,3.12c-1.02,0.86-2.21,1.51-3.46,1.97c-2.41,0.89-5.15,1.14-7.64,0.47
		c-1.23-0.33-2.43-0.9-3.37-1.78c-0.32-0.3-0.86-1.23-1.4-1.17c-0.55,0.07-1.21,1.37-1.49,1.73c-1.45,1.87-2.89,3.22-5.32,3.65
		c-2.06,0.37-4.29,0.02-6.12-1.01c-2.29-1.28-3.23-3.38-4.03-5.78c-1.12-3.38-1.46-6.79-1.23-10.33c0.02-0.37,0.33-1.9-0.26-1.85
		c-0.14,0.01-0.97,2.22-1.06,2.42c-0.79,1.68-1.58,3.38-2.43,5.03c-1.53,2.97-3.38,5.51-6.87,6.16c-1.47,0.27-3.02,0.17-4.34-0.58
		c-0.66-0.37-1.22-0.88-1.69-1.47c-0.4-0.5-0.59-1.09-1.23-1.28c-0.56,3.39-1.01,8.5-4.39,10.37c-2.99,1.65-6.29,0.08-8.09-2.52
		c-1.17-1.68-1.27-3.63-1.54-5.6c-0.33-2.38-0.63-4.77-0.86-7.16c-0.22-2.33-0.31-4.66-0.28-7c0.01-1.07,0.04-2.14,0.06-3.2
		c0.01-0.97,0.18-2.09-0.33-2.97c-4.21,5.2-6.74,12.44-12.65,16.09c-1.3,0.8-2.81,1.04-4.29,0.68c-0.53-0.13-1.33-0.71-1.84-0.61
		c-0.64,0.13-0.84,0.96-1.11,1.5c-1.26,2.53-2.81,5.33-6.09,5c-2.87-0.29-4.88-2.95-5.76-5.49c-1.06-3.06-1.04-6.5-1.16-9.69
		c-0.03-0.9-0.06-1.8-0.09-2.7c-0.02-0.69,0.12-1.78-0.07-2.45c-0.33-1.14-0.76,0.28-1.05,0.91c-0.41,0.92-0.77,1.86-1.15,2.79
		c-1.4,3.41-2.67,6.92-4.28,10.24c-1.21,2.49-2.94,4.92-6.01,4.72c-1.48-0.1-2.18-0.66-3.42,0.37c-1.13,0.94-2.38,1.79-3.9,1.86
		c-3.22,0.15-5.77-3.04-7.94-4.98c-1.39-1.25-3.96-4.09-6.13-3.16c-2.32,1-3.6,4.96-4.34,7.1c-1.14,3.27-1.72,6.71-2.26,10.12
		c-0.18,1.15-0.11,2.87-1.11,3.68c-0.95,0.77-2.64,0.71-3.48-0.17c-1.1-1.14-1.91-2.97-2.65-4.37c-0.82-1.54-1.48-3.15-2.11-4.77
		c-5.3-13.48-6.97-27.8-10.1-41.84c-0.76-3.41-1.9-6.63-3.43-9.77c-1.03-2.12-2.47-4.53-4.79-2.29c-4.57,4.43-6.02,11.47-6.39,17.55
		c-0.91,14.78,1.87,29.14,4.6,43.57c0.34,1.79,0.67,3.57,1.01,5.36c0.17,0.89,0.34,1.78,0.51,2.68c0.14,0.73,0.51,1.67,0.34,2.4
		c-0.23,1.01-1.4,1.31-2.33,1.33c-1.53,0.04-2.35-0.93-3.04-2.16c-3.48-6.21-6.43-12.69-9.3-19.2c-2.91-6.59-5.6-13.29-7.73-20.18
		c-1.09-3.52-2.01-7.09-2.9-10.66c-0.41-1.66-0.82-3.32-1.23-4.98c-0.24-0.97-0.92-2.18-0.11-3.09c1.46-1.65,2.5,1.38,2.97,2.42
		c0.75,1.67,1.27,3.45,1.86,5.18c1.14,3.38,2.24,6.77,3.44,10.13c2.5,6.99,5.49,13.8,8.44,20.61c0.72,1.67,1.45,3.34,2.17,5.01
		c0.44,1.01,1,3.62,2.13,4.06c-1.43-9.26-3.4-18.41-4.02-27.78c-0.58-8.64-0.54-18.34,3.01-26.42c1.43-3.25,3.91-7.41,7.69-8.18
		c3.97-0.8,6.41,2.96,7.87,6.06c1.84,3.91,2.64,8.22,3.56,12.41c1.03,4.7,2.03,9.41,3.06,14.12c2.13,9.73,4.22,19.74,8.89,28.64
		c1.44-5.2,2.11-10.95,5.65-15.28c1.61-1.97,3.89-3.33,6.5-2.75c2.59,0.58,4.69,2.75,6.64,4.41c1.12,0.95,2.22,1.93,3.35,2.86
		c1.18,0.98,2.03,1.15,3.23,0.1c0.76-0.66,1.96-1.4,2.04-2.51c0.09-1.3-0.51-2.87-0.62-4.18c-0.47-5.33,0.78-10.81,3.93-15.19
		c2.6-3.62,7.75-6.65,12.12-4.25c0.9,0.49,1.32,0.85,1.57-0.34c0.26-1.24,0.18-2.94,1.22-3.85c0.66-0.58,1.84-0.73,2.51-0.08
		c0.91,0.87,0.41,2.84,0.34,3.94c-0.37,5.96-0.97,11.94-0.09,17.89c0.37,2.48,0.8,6.34,2.59,8.27c0.98,1.06,1.65-0.02,2.27-0.87
		c0.75-1.03,1.5-2.06,2.11-3.19c1.23-2.28,1.11-4.48,1.47-6.95c0.33-2.32,1.14-4.56,2.26-6.62c2.22-4.09,5.89-7.84,10.58-8.86
		c1.33-0.29,2.71-0.35,4.07-0.22c0.69,0.07,1.37,0.2,2.06,0.34c0.3,0.06,0.91,0.32,1.22,0.19c0.53-0.22,0.46-1,0.52-1.49
		c0.2-1.64,0.38-3.28,0.57-4.92c0.71-6.14,1.52-12.17,3.01-18.18c0.22-0.88,0.28-2.59,1.01-3.25c0.95-0.86,1.94,0.1,2.05,1.09
		c0.14,1.4-0.2,2.99-0.32,4.39c-0.13,1.53-0.26,3.06-0.4,4.59c-0.56,6.34-1.3,12.66-1.65,19.01c-0.34,6.17-0.44,12.39-0.24,18.56
		c0.1,2.93,0.31,6.1,1.07,8.94c0.37,1.39,2.22,5.64,4.21,4.29c0.91-0.62,1.34-2.16,1.74-3.13c0.58-1.38,1.11-2.79,1.66-4.19
		c0.45-1.17,1.08-2.43,1.34-3.66c0.28-1.36-0.21-3.03-0.25-4.43c-0.14-5.23,0.5-11.27,3.72-15.59c1.59-2.13,3.51-3.49,6.27-3.03
		c2.21,0.37,3.41,1.74,3.48,3.97c0.14,4.45-1.83,8.6-5.2,11.46c-1.31,1.12-4.26,2.1-4.35,4.02c-0.09,1.92,1.03,5.75,3.03,6.53
		c1.24,0.49,2.24-0.88,3.07-1.64c1.08-0.99,2.02-2.01,2.82-3.24c1.59-2.44,3.08-4.96,4.47-7.52c0.62-1.14,1.34-2.3,1.75-3.54
		c0.43-1.29,0.48-2.67,0.67-4c0.4-2.8,0.98-5.58,1.59-8.34c1.23-5.52,2.85-10.96,5.04-16.18c4.35-10.32,11.08-20.44,19.1-28.28
		c3.56-3.48,7.72-6.36,12.36-8.19c4.71-1.86,10.59-2.89,14.71,0.82c3.92,3.53,3.73,9.01,2.98,13.82c-0.83,5.3-2.89,10.38-5.41,15.1
		c-4.53,8.46-11.07,15.64-18.84,21.23c-4.28,3.08-8.93,5.57-13.53,8.12c-2.47,1.36-4.94,2.73-7.61,3.65
		c-1.29,0.45-2.62,0.79-3.97,1.01c-1.71,0.27-2.24,0.3-2.36,2.17c-0.21,3.15-0.47,6.3-0.45,9.46c0.01,2.88,0.81,5.53,2.12,8.07
		c0.98,1.9,2.42,3.93,4.86,3.14c1.12-0.36,1.94-1.27,2.73-2.08c1.02-1.05,2.34-2.25,3.09-3.51c0.53-0.89,0.47-1.99,0.6-3
		c0.17-1.29,0.41-2.56,0.75-3.81c0.64-2.32,1.66-4.54,3.13-6.46c1.43-1.86,3.35-3.71,5.64-4.42c1.89-0.59,4.51-0.49,5.86,1.16
		c1.28,1.56,1.04,4.02,0.58,5.84c-0.5,1.98-1.63,3.71-3.16,5.05c-1.85,1.61-4.11,2.56-6.41,3.35c-0.82,0.28-2.38,0.44-2.62,1.47
		c-0.22,0.95,0.63,2.2,1.26,2.81c1.66,1.6,4.01,1.57,6.08,0.91c1.19-0.38,2.31-0.96,3.36-1.63c0.62-0.39,1.21-0.83,1.81-1.26
		C218.8,101.12,219.47,100.32,220.09,100.75z M238.8,30.76c0-4.08-1.51-8.8-5.79-10.21c-4.78-1.58-10.45,1.66-14.2,4.35
		c-4.74,3.4-8.63,7.98-12.04,12.68c-3.55,4.89-6.66,10.17-9.24,15.63c-2.63,5.58-4.58,11.46-6,17.46c-0.71,3.01-1.3,6.05-1.78,9.1
		c-0.11,0.73-0.86,3.04-0.24,3.61c0.72,0.66,3.11-0.62,3.9-0.88c5.85-1.94,11.26-5.14,16.52-8.31c4.61-2.77,8.93-6.04,12.75-9.83
		c4.29-4.25,7.86-9.14,10.67-14.48C236.48,43.93,238.83,37.55,238.8,30.76z M134.35,93.37c0.13,0.76,0.09,2.82,0.84,3.27
		c0.68,0.4,1.93-1.04,2.35-1.48c1.8-1.84,3.17-4.25,4.64-6.36c1.38-1.98,2.69-4.03,4.12-5.98c0.65-0.89,1.34-1.74,2.15-2.49
		c0.55-0.51,2-1.12,1.25-1.84c-0.6-0.58-2.13-0.77-2.94-0.86c-1.17-0.12-2.35,0.05-3.41,0.57c-1.83,0.88-3.45,2.61-4.73,4.14
		C136,85.46,134.53,89.31,134.35,93.37z M104.55,94.24c0.31,2.14,0.31,4.52,1.41,6.39c1.5-1.47,2.22-3.65,3.06-5.57
		c0.85-1.92,1.6-3.88,2.38-5.83c0.76-1.91,1.56-3.81,2.54-5.61c0.46-0.84,0.95-1.65,1.5-2.43c0.54-0.77,1.28-1.29,0.64-2.19
		c-1-1.4-3.19-1.41-4.51-0.6c-1.65,1.02-2.99,2.67-3.98,4.31C105.5,86.2,104.63,90.21,104.55,94.24z M215.98,88.44
		c-0.06-1.38-0.39-3.02-1.94-3.44c-1.41-0.39-2.61,1-3.5,1.9c-2.34,2.35-3.71,5.41-4.37,8.64c-0.2,1-1.08,3.45,0.6,3.06
		c1.66-0.39,3.69-1.56,5.11-2.5C214.52,94.35,215.9,91.58,215.98,88.44z M176.45,80.51c-0.17-1.2-0.1-3.22-1.58-3.64
		c-1.38-0.39-2.35,1.15-2.92,2.14c-1.77,3.07-2.46,6.62-2.7,10.12c-0.08,1.06-0.58,3.49,1.1,2.32c1.13-0.79,2.15-1.84,3-2.91
		C175.19,86.24,176.22,83.44,176.45,80.51z"/>
	<path class="st0" d="M197.99,139.81c1.4-2.09,2.85-4.13,5.44-4.73c3.33-0.78,4.89,1.52,6.56,4c1.77,2.62,3.02,5.58,4.82,8.17
		c1.62,2.33,3.82,3.2,6.29,4.33c-3.67,2.02-8.16-1.02-10.01-4.13c-1.25-2.1-2.14-4.4-3.38-6.51c-0.61-1.03-1.29-2.01-1.98-2.99
		c-0.66-0.93-1.19-1.8-2.36-1.05c-3.82,2.47-3.61,8.66-4.13,12.57c-0.24,1.82-0.38,3.29-2.51,3.34c-2,0.04-2.33-1.21-2.57-2.94
		c-0.7-5.1-0.94-10.24-1.41-15.36c-0.23-2.55-0.52-4.93-1.48-7.31c-0.33-0.82-0.57-2.05-1.2-2.69c-0.79-0.81-1.82-0.18-2.65,0.22
		c-1.15,0.56-2.89,1.29-3.51,2.51c-0.65,1.27,0.03,3.02,0.32,4.29c1.16,5.05,1.91,10.2,2.24,15.38c0.31,4.81,0.46,9.69-0.67,14.41
		c-0.96,4-2.66,8.95-5.74,11.83c-2.59,2.43-6.29,3.3-9.76,2.91c-4.49-0.5-5.52-4.88-5.9-8.73c-0.49-4.9,0.56-9.77,2.4-14.3
		c1.98-4.89,4.24-9.67,6.55-14.42c1.07-2.21,2.07-4.42,3.56-6.39c1.37-1.8,3.25-3.19,2.42-5.61c-0.37-1.08-0.76-2.16-1.15-3.23
		c-0.31-0.85-0.6-2.65-1.53-3.07c-1.67-0.77-3.88,2.49-4.57,3.59c-2.71,4.36-5.04,8.92-7.41,13.47c-1.75,3.37-3.49,6.71-7.83,6.36
		c-0.63-0.05-1.75-0.5-2.31-0.04c-0.58,0.48-0.71,2.01-0.99,2.69c-0.65,1.58-1.7,2.87-3.45,3.22c-1.69,0.34-3.7,0.08-5.05-1.07
		c-1.56-1.32-2.1-3.69-2.58-5.59c-0.6-2.35-0.72-4.76-1.28-7.1c-0.77,1.49-1.58,2.96-2.41,4.42c-0.74,1.3-1.49,2.87-2.65,3.86
		c-1.73,1.48-5.03,1.56-6.75,0.01c-1.83-1.65-1.74-4.94-1.63-7.18c0.15-2.85,0.98-5.63,2.58-8.01c1.51-2.24,3.66-4.4,6.47-4.72
		c1.28-0.15,2.56,0.1,3.75,0.57c0.39,0.15,1.48,0.9,1.85,0.73c0.45-0.21,0.49-1.01,0.6-1.43c0.29-1.07,0.58-2.04,1.77-2.32
		c1.23-0.29,2.2,0.11,2.24,1.41c0.06,1.59-0.31,3.3-0.44,4.88c-0.16,1.86-0.29,3.72-0.34,5.58c-0.09,3.39,0.1,6.8,0.9,10.11
		c0.36,1.49,1.54,6.55,3.52,3.42c0.65-1.03,1.13-2.06,1.45-3.23c0.46-1.69-0.1-3.04-0.47-4.67c-0.75-3.24-0.01-6.98,0.79-10.15
		c0.66-2.59,1.57-5.25,3.89-6.8c2.02-1.35,4.74-1.73,7.11-1.34c1.33,0.22,2.6,0.74,3.66,1.59c0.4,0.32,0.81,1.02,1.28,1.2
		c0.84,0.32,1.17-0.52,1.63-1.1c1.64-2.08,3.88-3.59,6.6-3.66c3.66-0.09,4.13,3.31,5.73,5.8c0.78,1.22,2.86-0.56,3.84-1
		c1.42-0.64,3.01-1.36,4.61-1.01c2.97,0.65,4.63,4.45,5.48,7.04C197.31,133.05,197.21,136.51,197.99,139.81z M180.22,131.9
		c-0.69-0.21-1.02,0.75-1.4,1.32c-0.41,0.62-0.82,1.24-1.17,1.89c-0.79,1.49-1.46,3.06-2.18,4.59c-1.42,3.01-2.83,6.02-4.16,9.07
		c-2.5,5.7-4.65,11.55-3.66,17.87c0.36,2.33,1.16,6.65,3.8,7.42c2.45,0.71,4.78-1.22,5.98-3.13c3.21-5.12,4.78-10.82,4.91-16.84
		C182.51,146.59,181.55,139.26,180.22,131.9z M155.89,135.32c0.01,0.71,0.04,1.41,0.11,2.12c0.1,0.96-0.01,2.67,0.63,3.47
		c1.53,1.89,3.13-1.28,3.77-2.36c1.27-2.16,2.49-4.34,3.73-6.51c0.92-1.61,2.45-3.5,2.87-5.35c0.28-1.27-0.57-1.95-1.52-2.64
		c-1.47-1.07-3.14-2.1-5.02-1.45c-2,0.69-3.16,3.07-3.6,4.99C156.26,130.14,155.87,132.72,155.89,135.32z M131.98,139.18
		c0.19,0.8,0.43,3.97,1.65,3.5c0.59-0.23,1.12-1.59,1.43-2.12c0.47-0.81,0.92-1.62,1.37-2.43c1.06-1.89,2.17-3.74,3.26-5.61
		c0.64-1.1,2.6-3.28,1.79-4.55c-0.76-1.19-2.43-2.06-3.83-1.77c-1.54,0.31-2.59,1.69-3.33,2.97
		C132.56,132.22,132.06,135.7,131.98,139.18z"/>
	<path class="st0" d="M81.14,151.94c0.43-9.44,1.95-19.01,7.02-27.17c4.44-7.13,12.17-12.45,20.91-10.72
		c2.1,0.42,4.14,1.38,5.8,2.75c0.86,0.71,1.63,1.53,2.21,2.49c0.58,0.95,1.36,3.18-0.38,2.31c-1.76-0.88-2.81-3.12-4.48-4.22
		c-1.84-1.21-3.98-1.93-6.18-1.98c-4.87-0.11-8.88,3-11.77,6.66c-3.22,4.07-5.18,9.07-6.52,14.04c-1.43,5.33-2.08,10.95-1.79,16.47
		c0.26,5.09,1.59,10.56,5.33,14.26c0.84,0.83,1.77,1.75,2.73,2.44c1.24,0.88,2.02,0.24,2.7-0.92c1.5-2.55,2.88-5.18,4.17-7.85
		c2.52-5.2,4.71-10.64,7.72-15.58c1.4-2.31,3.18-4.36,4.97-6.37c1.47-1.65,3.59-3.22,5.97-2.96c2.61,0.28,3.06,3.99,3.58,6
		c0.83,3.18,1.48,6.41,2.13,9.63c0.68,3.35,1.29,6.74,2.15,10.05c0.37,1.42,0.95,2.75,1.54,4.1c0.36,0.81,0.93,2.06,0.84,2.96
		c-0.19,1.96-2.31,0.44-3.08-0.47c-0.85-1-1.44-2.18-1.95-3.37c-1.21-2.82-2.05-5.77-2.64-8.78c-0.6-3.03-0.97-6.1-1.46-9.15
		c-0.25-1.55-0.53-3.1-0.83-4.64c-0.31-1.6-0.79-2.8-1.47-4.26c-2.02,1.61-3.52,3.36-4.96,5.52c-1.37,2.06-2.56,4.23-3.63,6.47
		c-2.4,5.01-4.36,10.23-6.64,15.29c-1.63,3.62-3.92,7.13-8.3,7.16c-3.81,0.03-7.12-2.5-9.3-5.44
		C82.32,162.34,81.97,157.04,81.14,151.94z"/>
	<path class="st0" d="M247.55,106.63c1.82-2.46,3.73-5.52,7.2-5.29c3.49,0.23,5.03,3.95,6.7,6.51c1.72,2.64,3.86,6.85,7.09,7.88
		c0.97,0.31,3.05,0.57,3.76-0.34c0.46-0.58,0.22-1.57,0.24-2.24c0.04-0.92,0.15-1.85,0.35-2.75c0.62-2.85,2.15-6.73,4.62-8.48
		c1.86-1.31,6.63-1.74,6.5,1.62c-0.1,2.61-1.92,5.32-3.99,6.79c-1.06,0.75-2.67,1-3.6,1.84c-0.89,0.8-0.65,2.31-0.36,3.34
		c0.88,3.18,4.03,3.35,6.76,2.61c1.95-0.53,3.77-1.44,5.5-2.47c1.29-0.77,2.55-1.93,4.02-2.34c1.03-0.29,1.67,0.2,0.71,1.17
		c-0.54,0.55-1.16,1.06-1.75,1.55c-1.2,1-2.51,1.85-3.92,2.53c-2.79,1.36-5.93,1.99-9.01,1.43c-1.37-0.25-2.68-0.78-3.76-1.68
		c-0.49-0.41-0.87-1.08-1.39-1.43c-0.64-0.44-1.19-0.12-1.89,0.03c-2.64,0.54-5.21-0.14-7.25-1.89c-2.41-2.07-4.05-5.11-5.77-7.75
		c-0.8-1.23-1.55-2.65-2.58-3.7c-1.01-1.04-1.76-0.63-2.53,0.46c-1.94,2.74-3.32,5.9-4.83,8.89c-0.4,0.8-0.8,1.69-1.75,1.89
		c-0.95,0.21-2.35-0.07-3.04-0.78c-0.95-0.98-0.92-2.82-0.97-4.08c-0.08-2,0.1-3.99,0.37-5.96c0.27-1.99,0.62-3.98,0.92-5.97
		c0.29-1.95,0.87-4.06,0.52-6.01c-1.83,1.14-2.93,3.59-4.11,5.39c-1.32,2.02-2.64,4.04-3.93,6.09c-1.84,2.94-3.88,7.47-7.9,7.6
		c-3.88,0.13-5.91-3.53-6.57-6.87c-0.9-4.56,0.13-9.33,1.14-13.78c0.31-1.38,0.3-3.83,2.09-4.07c2.05-0.27,2.69,0.97,2.4,2.74
		c-0.74,4.63-1.85,9.34-1.3,14.06c0.16,1.38,0.41,4.28,1.61,5.26c1.02,0.84,2.4-0.8,3.07-1.45c3.12-3.03,4.88-6.96,7.33-10.48
		c1.3-1.87,2.81-3.62,4.56-5.09c1.47-1.22,3.95-1.83,4.9,0.36c0.45,1.03,0.29,2.37,0.29,3.46c0.01,1.34-0.01,2.67-0.06,4.01
		C247.86,101.65,247.14,104.28,247.55,106.63z M282.3,103.72c-0.39-0.69-0.47-1.48-1.42-1.34c-0.9,0.13-1.66,1.15-2.15,1.83
		c-1.1,1.52-2.09,3.91-2.24,5.8c-0.09,1.12,0.46,0.84,1.25,0.36c0.74-0.46,1.43-1.03,2.03-1.67
		C281.07,107.31,281.88,105.57,282.3,103.72z"/>
	<path class="st0" d="M218.94,143.09c-0.57-2.71-0.56-5.48-0.01-8.2c0.54-2.64,1.63-5.17,3.27-7.32c1.57-2.06,3.96-4.07,6.71-3.87
		c2.1,0.16,3.88,1.62,4.58,3.58c1.5,4.17-0.97,9.32-4.23,11.92c-0.86,0.69-1.81,1.27-2.8,1.77c-1.08,0.55-2.42,0.82-3.42,1.5
		c-1.82,1.23,1.57,3.77,2.75,4.17c3.18,1.05,6.41-1.5,8.72-3.4c1.33-1.09,2.57-2.3,3.81-3.49c0.54-0.52,2.21-2.73,3.15-2.27
		c0.95,0.47-0.24,1.57-0.66,2.02c-1.04,1.09-2.07,2.19-3.13,3.26c-1.92,1.93-3.94,4.06-6.55,5.01c-2.34,0.86-4.98,0.82-7.37,0.21
		c-1.75-0.44-4.12-2.11-4.6-3.95C219.08,143.71,219.01,143.4,218.94,143.09z M221.86,138.73c0,0.63-0.31,2.43,0.54,2.67
		c0.97,0.28,3.17-1.24,3.91-1.69c2.94-1.79,4.91-4.59,5.38-8.02c0.26-1.92,0.26-4.07-1.09-5.62c-1.42-1.63-3.26-1.19-4.61,0.27
		C223.05,129.53,221.87,134.51,221.86,138.73z"/>
	<path class="st0" d="M220.69,124.08c-0.7-0.4-1.22-0.48-0.8-1.38c0.34-0.72,1.09-1.38,1.6-1.98c1.12-1.31,2.85-3.48,4.64-3.86
		c1.32-0.28,0.56,1.02,0.22,1.71c-0.4,0.8-0.85,1.58-1.38,2.3C223.87,122.37,222.52,123.67,220.69,124.08z"/>
	<path class="st0" d="M228.6,78c-0.54-0.56-1.61-1-0.97-1.93c0.42-0.6,1.4-0.69,2.04-0.5c0.67,0.2,1.28,0.63,1,1.38
		C230.38,77.73,229.31,77.89,228.6,78z"/>
</g>
<g>
	<path class="st0" d="M93.62,196.1h3.15c2.85,0,4.71,1.69,4.71,4.6s-1.86,4.63-4.71,4.63h-3.15V196.1z M96.68,203.89
		c1.87,0,3.07-1.1,3.07-3.18c0-2.05-1.22-3.16-3.07-3.16H95.3v6.34H96.68z"/>
	<path class="st0" d="M104.1,196.1h5.53v1.44h-3.85v2.42h3.11v1.44h-3.11v2.48h4.06v1.44h-5.73V196.1z"/>
	<path class="st0" d="M112.69,202.97c0,0,1,0.98,2.3,0.98c0.7,0,1.34-0.36,1.34-1.12c0-1.65-4.35-1.37-4.35-4.2
		c0-1.53,1.33-2.68,3.09-2.68c1.82,0,2.76,0.99,2.76,0.99l-0.73,1.37c0,0-0.88-0.81-2.04-0.81c-0.78,0-1.39,0.45-1.39,1.1
		c0,1.64,4.34,1.24,4.34,4.19c0,1.47-1.12,2.7-3.04,2.7c-2.05,0-3.19-1.26-3.19-1.26L112.69,202.97z"/>
	<path class="st0" d="M120.58,196.1h1.68v9.23h-1.68V196.1z"/>
	<path class="st0" d="M129.59,195.95c2.26,0,3.43,1.17,3.43,1.17l-0.83,1.25c0,0-0.99-0.88-2.46-0.88c-2.07,0-3.17,1.43-3.17,3.17
		c0,2,1.37,3.3,3.09,3.3c1.39,0,2.31-0.96,2.31-0.96v-1.08h-1.42v-1.44h2.93v4.86h-1.43v-0.44c0-0.19,0.01-0.39,0.01-0.39h-0.03
		c0,0-0.96,0.99-2.68,0.99c-2.43,0-4.52-1.89-4.52-4.78C124.83,198.03,126.84,195.95,129.59,195.95z"/>
	<path class="st0" d="M136.31,196.1h1.68l3.5,5.33c0.35,0.53,0.77,1.43,0.77,1.43h0.03c0,0-0.09-0.88-0.09-1.43v-5.33h1.66v9.23
		h-1.66l-3.5-5.32c-0.35-0.53-0.77-1.43-0.77-1.43h-0.03c0,0,0.09,0.88,0.09,1.43v5.32h-1.68V196.1z"/>
	<path class="st0" d="M152.16,200.42v-0.03c0,0-1.17-0.46-1.17-2.01c0-1.64,1.31-2.43,2.91-2.43c0.59,0,1.21,0.16,1.21,0.16
		l-0.4,1.33c0,0-0.31-0.08-0.61-0.08c-0.78,0-1.42,0.43-1.42,1.24c0,0.53,0.3,1.22,1.4,1.22h1.47v-1.2h1.65v1.2h1.2v1.46h-1.2v1.09
		c0,1.89-1.23,3.13-3.31,3.13c-2,0-3.3-1.21-3.3-2.77C150.58,201.72,151.18,200.76,152.16,200.42z M153.89,203.96
		c1.04,0,1.66-0.57,1.66-1.69v-1h-1.56c-1.03,0-1.69,0.46-1.69,1.35C152.3,203.36,152.94,203.96,153.89,203.96z"/>
	<path class="st0" d="M165.08,196.1h1.68v7.79h3.99v1.44h-5.67V196.1z"/>
	<path class="st0" d="M172.84,196.1h5.53v1.44h-3.85v2.42h3.11v1.44h-3.11v2.48h4.06v1.44h-5.73V196.1z"/>
	<path class="st0" d="M183.24,197.55h-3.03v-1.44h7.73v1.44h-3.03v7.79h-1.68V197.55z"/>
	<path class="st0" d="M192.46,197.55h-3.03v-1.44h7.74v1.44h-3.03v7.79h-1.68V197.55z"/>
	<path class="st0" d="M199.21,196.1h5.53v1.44h-3.85v2.42h3.11v1.44h-3.11v2.48h4.06v1.44h-5.73V196.1z"/>
	<path class="st0" d="M207.5,196.1h2.98c1,0,1.46,0.08,1.86,0.26c0.92,0.42,1.51,1.3,1.51,2.52c0,1.11-0.58,2.13-1.56,2.52v0.03
		c0,0,0.13,0.13,0.31,0.46l1.9,3.45h-1.87l-1.83-3.45h-1.61v3.45h-1.68V196.1z M210.68,200.43c0.9,0,1.46-0.53,1.46-1.46
		c0-0.88-0.38-1.43-1.69-1.43h-1.27v2.89H210.68z"/>
	<path class="st0" d="M217.01,202.97c0,0,1,0.98,2.3,0.98c0.7,0,1.34-0.36,1.34-1.12c0-1.65-4.35-1.37-4.35-4.2
		c0-1.53,1.33-2.68,3.09-2.68c1.82,0,2.76,0.99,2.76,0.99l-0.73,1.37c0,0-0.88-0.81-2.04-0.81c-0.78,0-1.39,0.45-1.39,1.1
		c0,1.64,4.34,1.24,4.34,4.19c0,1.47-1.12,2.7-3.04,2.7c-2.05,0-3.19-1.26-3.19-1.26L217.01,202.97z"/>
</g>
</svg>
