<?xml version="1.0" encoding="utf-8"?>
<!-- Generator: Adobe Illustrator 18.0.0, SVG Export Plug-In . SVG Version: 6.00 Build 0)  -->
<!DOCTYPE svg PUBLIC "-//W3C//DTD SVG 1.1//EN" "http://www.w3.org/Graphics/SVG/1.1/DTD/svg11.dtd">
<svg version="1.1" id="Layer_1" xmlns="http://www.w3.org/2000/svg" xmlns:xlink="http://www.w3.org/1999/xlink" x="0px" y="0px"
	 viewBox="0 0 204.7 81" style="enable-background:new 0 0 204.7 81;" xml:space="preserve">
<g>
	<path style="fill:none;stroke:#FFFFFF;stroke-width:2;stroke-linecap:round;stroke-linejoin:round;stroke-miterlimit:10;" d="
		M9.8,23.8c-1-5.4,1.4-10.5,3.9-10.9s4.2,2.4,4.9,4.8c1.9,6,3,12.3,3.2,18.5c-0.5-7-1.1-21,4-21.5c3.2-0.5,4.3,1.9,4.9,3.9
		c1.1,4,1.5,8.1,1.2,12.3c0.1-5.9-0.6-12.3,3.1-16.9c0.9-1.1,2.3-2.1,3.6-1.7c1.1,0.4,1.7,1.6,2.1,2.7c2,5.8,0.9,11.5,2.9,17.2
		c0.7,1.9,1.6,3.8,3.3,4.8c1.7,1,4.4,0.5,5-1.4"/>
	<path style="fill:none;stroke:#FFFFFF;stroke-width:2;stroke-linecap:round;stroke-linejoin:round;stroke-miterlimit:10;" d="
		M55.2,24.6c-1.1-2.4-3.8-2.9-5.7-1.8c-1.9,1.1-2.8,3.4-2.9,5.5c-0.1,1.5,0.3,3.2,1.6,4c1.2,0.7,2.8,0.3,3.9-0.6
		c1.1-0.9,1.7-2.2,2.2-3.5c0.4-1.1,1.4-3.6,1.7-4.8c0,1.5-0.7,4.7-0.4,6.2c0.2,1.6,0.7,3.1,2.8,2.5"/>
	<path style="fill:none;stroke:#FFFFFF;stroke-width:2;stroke-linecap:round;stroke-linejoin:round;stroke-miterlimit:10;" d="
		M66.3,24.1c-1.8-1.6-3.5-1.1-5.3,0.4c-2.1,1.7-2.5,7.2-0.3,8.1c2.9,1.2,6-1.7,7.6-4.3c1.6-2.7,2.5-5.7,2.6-8.8
		c0-1.2-0.2-4.8-1.2-5.4c-1.3-0.3-2.4,3.5-2.6,4.7c-0.4,2.3-0.7,4.6-0.2,6.8c0.5,2.2,0.9,6.5,3.2,7c3.3,0.7,7.8-4.2,8.2-6.7
		c0.4-2.1-1.6-3.8-2.9-3.5c-1.3,0.3-3.5,5.7-0.9,8.2c1.7,1.6,5.2,1.9,7.6,1.1c1.5-0.5,2.6-3.3,3.3-4.8c1.4-2.8,2.4-12.8-0.3-13
		c-2.6-0.3-2.9,4.5-3.1,5.5c-0.7,5.5-0.3,11.9,2.9,16.5c1.2,1.7,5.9,3.1,9-0.2"/>
	<path style="fill:none;stroke:#FFFFFF;stroke-width:2;stroke-linecap:round;stroke-linejoin:round;stroke-miterlimit:10;" d="
		M88.7,31.4c1.7-0.6,1.9-1,3.1-2.5c1.2-1.5,1.5-4-0.4-5.3c-1.8-1.3-3.3,3-3.3,5.3C88.1,29.8,88.2,30.7,88.7,31.4
		c1.2,1.8,4.2,1.5,5.7-0.1s2.9-3.9,3.3-6c0.4,1.2,0.1,2.5,0.1,3.8c0,1.3,0.1,3.3,1.4,3.2c0.8-0.1,1.8-0.9,2.3-1.5
		c1.4-1.8,2.5-3.3,2.8-5.8c0.9,1.6,0.5,5.1,0.1,6.8c0.1-2.3,2.9-6.9,4.8-6.9c2.3,0,1.7,4.5,2.5,6c0.8,1.6,2.3,1.8,3.9,1.1
		c1.6-0.7,3.9-1.7,4.4-3.4c0.4-1.3,1.2-4.1-0.9-4.9c-2.2-0.9-3.7,5.8-1.7,7.3s4.7,1.5,6.3,0.6c1.1-0.6,3.2-2.3,3.8-3.7"/>
	<path style="fill:none;stroke:#FFFFFF;stroke-width:2;stroke-linecap:round;stroke-linejoin:round;stroke-miterlimit:10;" d="
		M144.6,13.7c0.2-1.3-1-2.6-2.4-2.8c-1.4-0.2-2.7,0.5-3.8,1.3c-3.6,2.7-5.5,7.3-4.9,11.8c0.4,2.9,2,5.8,4.4,7.4
		c2.5,1.7,5.8,2,8.4,0.5c1.5-0.8,2.7-2.2,3.6-3.6c1.3-2.1,2-5,0.4-6.8c-0.5-0.6-1.3-1-2.1-0.8c-1,0.3-1.2,1.5-1.3,2.6
		c-0.1,3.6,1.2,7,1.6,10.6c0.4,3.6-0.5,7.7-3.7,9.4c-1.9,1.1-4.5,0.9-6.3-0.4c-0.8-0.6-1.5-1.7-0.9-2.5"/>
	<path style="fill:none;stroke:#FFFFFF;stroke-width:2;stroke-linecap:round;stroke-linejoin:round;stroke-miterlimit:10;" d="
		M160.3,24.1c-1.9-0.9-4.8,0.1-5.8,2.6c-0.8,1.9-1.7,5.9,1,6.4c3.2,0.7,5.9-6.6,6.3-9.2c-0.5,2.2-0.8,3.4-1,4.9
		c-0.2,1.8-0.1,3.9,1.5,4c1,0.1,2.3-0.3,2.7-2.6"/>
	<path style="fill:none;stroke:#FFFFFF;stroke-width:2;stroke-linecap:round;stroke-linejoin:round;stroke-miterlimit:10;" d="
		M172.3,25c-0.1-1.3-1.8-2.1-3.1-1.8c-1.3,0.3-2.3,1.4-3,2.5c-0.8,1.2-1.5,2.7-1.3,4.1c0.2,1.5,1.4,2.9,2.8,2.8
		c1.3,0,2.3-1.1,2.9-2.2C171.6,28.9,172.2,27,172.3,25c0.2,2.6,0.3,5.1,0.4,7.7c0.1,2.8,0.1,6-1.9,8.1c-1.2,1.2-3,1.7-4.7,1.4
		c-1.1-0.2-2.2-0.9-2.6-1.9c-0.4-1,0.1-2.4,1.2-2.7"/>
	<path style="fill:none;stroke:#FFFFFF;stroke-width:2;stroke-linecap:round;stroke-linejoin:round;stroke-miterlimit:10;" d="
		M176,24c0.2,2.7,0.1,5.3-0.3,8c0.5-1.7,1-3.4,1.9-4.8s3.1-3.7,4.3-2.6c1.3,1.1-0.7,6.4,1,7.8c1.3,1.1,3.3-0.3,4.5-1.5
		c0.9-0.9,1.7-2,1.9-3.3s-0.2-3-1.8-3s-2.1,3.3-1.6,5.7s7.2,3.2,8.7,1.5"/>
	<path style="fill:none;stroke:#FFFFFF;stroke-width:2;stroke-linecap:round;stroke-linejoin:round;stroke-miterlimit:10;" d="
		M186,20.8c1.7-0.3,3.1-1.7,3.4-3.4"/>
	<path style="fill:none;stroke:#FFFFFF;stroke-width:2;stroke-linecap:round;stroke-linejoin:round;stroke-miterlimit:10;" d="
		M98.3,20.6c0.1-0.3,0.3-0.6,0.1-0.3"/>
</g>
<g>
	<path style="fill:#FFFFFF;" d="M33.2,58c2.2,0,3.3,1.1,3.3,1.1l-1,1.6c0,0-0.9-0.8-2.1-0.8c-1.8,0-2.5,1.2-2.5,2.4
		c0,1.6,1.1,2.6,2.5,2.6c1,0,1.7-0.6,1.7-0.6v-0.7h-1.2v-1.8H37v4.8h-1.8v-0.2c0-0.2,0-0.4,0-0.4h0c0,0-0.8,0.7-2.3,0.7
		c-2.2,0-4.2-1.6-4.2-4.4C28.7,60,30.6,58,33.2,58z"/>
	<path style="fill:#FFFFFF;" d="M38.3,60.6h2v1c0,0.2,0,0.4,0,0.4h0c0.3-0.8,1-1.5,2-1.5c0.1,0,0.2,0,0.2,0v2c0,0-0.2,0-0.4,0
		c-0.5,0-1.3,0.2-1.6,1.1c-0.1,0.2-0.1,0.5-0.1,0.8v2.3h-2.1V60.6z"/>
	<path style="fill:#FFFFFF;" d="M46.6,62.9L46.6,62.9l0.1-0.1c0-0.5-0.4-0.7-0.9-0.7c-0.8,0-1.7,0.6-1.7,0.6l-0.7-1.5
		c0,0,1.1-0.8,2.6-0.8c1.7,0,2.8,0.9,2.8,2.5v3.8h-1.9v-0.4c0-0.2,0-0.4,0-0.4h0c0,0-0.5,0.9-1.8,0.9c-1.2,0-2.1-0.8-2.1-2
		C43,63.1,45.6,62.9,46.6,62.9z M45.7,65.3c0.5,0,1-0.6,1-1.1v-0.1h-0.2c-0.7,0-1.4,0.2-1.4,0.7C45.1,65.1,45.3,65.3,45.7,65.3z"/>
	<path style="fill:#FFFFFF;" d="M50.2,60.6h1.9v0.3c0,0.2,0,0.4,0,0.4h0c0,0,0.6-0.9,1.9-0.9c1.7,0,2.8,1.3,2.8,3.2
		c0,2-1.2,3.2-2.9,3.2c-1,0-1.6-0.6-1.6-0.6h0c0,0,0,0.2,0,0.5v2.3h-2.1V60.6z M53.4,65.2c0.6,0,1.2-0.5,1.2-1.5
		c0-0.9-0.5-1.5-1.2-1.5c-0.6,0-1.2,0.5-1.2,1.5C52.2,64.5,52.6,65.2,53.4,65.2z"/>
	<path style="fill:#FFFFFF;" d="M57.8,58.2h2.1v2.7c0,0.3,0,0.5,0,0.5h0c0.3-0.6,1.1-1,1.9-1c1.2,0,2.2,0.6,2.2,2.3v4h-2.1v-3.6
		c0-0.6-0.2-0.8-0.7-0.8c-0.6,0-1.1,0.4-1.2,0.9c-0.1,0.2-0.1,0.5-0.1,0.8v2.7h-2.1V58.2z"/>
	<path style="fill:#FFFFFF;" d="M65.5,60.6h2.1v6.2h-2.1V60.6z M65.5,58.2h2v1.6h-2V58.2z"/>
	<path style="fill:#FFFFFF;" d="M72.1,60.4c1.7,0,2.5,0.9,2.5,0.9l-0.9,1.4c0,0-0.6-0.6-1.5-0.6c-1,0-1.5,0.7-1.5,1.5
		c0,0.7,0.5,1.5,1.5,1.5c0.9,0,1.7-0.7,1.7-0.7l0.8,1.5c0,0-0.9,1-2.7,1c-2.2,0-3.4-1.5-3.4-3.2C68.6,62,69.8,60.4,72.1,60.4z"/>
	<path style="fill:#FFFFFF;" d="M78.7,58.2h3c2.7,0,4.4,1.6,4.4,4.3s-1.7,4.3-4.4,4.3h-3V58.2z M81.6,65c1.5,0,2.3-0.9,2.3-2.5
		c0-1.6-0.9-2.5-2.3-2.5h-0.9v5H81.6z"/>
	<path style="fill:#FFFFFF;" d="M90.2,60.4c1.8,0,2.9,1.3,2.9,3c0,0.2,0,0.6,0,0.6h-3.9c0.2,0.8,0.8,1.1,1.4,1.1
		c0.9,0,1.7-0.6,1.7-0.6L93,66c0,0-1,0.9-2.6,0.9c-2.2,0-3.4-1.6-3.4-3.2C86.9,61.9,88.2,60.4,90.2,60.4z M90.9,62.9
		c0-0.5-0.3-0.9-0.8-0.9c-0.6,0-0.9,0.4-1,0.9H90.9z"/>
	<path style="fill:#FFFFFF;" d="M94.5,64.6c0,0,0.7,0.6,1.6,0.6c0.3,0,0.6-0.1,0.6-0.3c0-0.5-2.9-0.6-2.9-2.6c0-1.2,1.1-1.9,2.5-1.9
		c1.4,0,2.2,0.7,2.2,0.7l-0.7,1.5c0,0-0.6-0.5-1.5-0.5c-0.3,0-0.6,0.1-0.6,0.3c0,0.5,2.9,0.5,2.9,2.5c0,1.1-0.9,2-2.5,2
		c-1.5,0-2.5-0.9-2.5-0.9L94.5,64.6z"/>
	<path style="fill:#FFFFFF;" d="M99.8,60.6h2.1v6.2h-2.1V60.6z M99.8,58.2h2v1.6h-2V58.2z"/>
	<path style="fill:#FFFFFF;" d="M105.9,67.6c0.7,0,1.4-0.3,1.4-1.2v-0.2c0-0.1,0-0.2,0-0.2h0c-0.4,0.4-0.8,0.6-1.5,0.6
		c-1.9,0-2.8-1.5-2.8-3.1c0-1.6,0.9-3,2.8-3c1.1,0,1.7,0.6,1.7,0.6h0c0,0,0-0.1,0-0.1v-0.3h1.9v5.6c0,2.3-1.8,3.1-3.5,3.1
		c-0.8,0-1.7-0.2-2.3-0.6l0.6-1.6C104.2,67.2,104.9,67.6,105.9,67.6z M107.4,63.5c0-1.1-0.6-1.3-1.2-1.3c-0.7,0-1.1,0.5-1.1,1.2
		c0,0.8,0.4,1.5,1.2,1.5C106.8,64.9,107.4,64.6,107.4,63.5z"/>
	<path style="fill:#FFFFFF;" d="M110.9,60.6h2v0.5c0,0.2,0,0.4,0,0.4h0c0.3-0.5,0.9-1.1,2-1.1c1.2,0,2.2,0.6,2.2,2.3v4H115v-3.6
		c0-0.6-0.2-0.8-0.7-0.8c-0.6,0-1,0.4-1.2,0.9c-0.1,0.2-0.1,0.5-0.1,0.8v2.7h-2.1V60.6z"/>
	<path style="fill:#FFFFFF;" d="M121.4,60.4c1.8,0,2.9,1.3,2.9,3c0,0.2,0,0.6,0,0.6h-3.9c0.2,0.8,0.8,1.1,1.4,1.1
		c0.9,0,1.7-0.6,1.7-0.6l0.8,1.5c0,0-1,0.9-2.6,0.9c-2.2,0-3.4-1.6-3.4-3.2C118.1,61.9,119.4,60.4,121.4,60.4z M122.1,62.9
		c0-0.5-0.3-0.9-0.8-0.9c-0.6,0-0.9,0.4-1,0.9H122.1z"/>
	<path style="fill:#FFFFFF;" d="M125.3,60.6h2v1c0,0.2,0,0.4,0,0.4h0c0.3-0.8,1-1.5,2-1.5c0.1,0,0.2,0,0.2,0v2c0,0-0.2,0-0.4,0
		c-0.5,0-1.3,0.2-1.6,1.1c-0.1,0.2-0.1,0.5-0.1,0.8v2.3h-2.1V60.6z"/>
	<path style="fill:#FFFFFF;" d="M134.3,62.2L134.3,62.2c0,0-1-0.5-1-1.9c0-1.7,1.4-2.3,2.8-2.3c0.6,0,1.2,0.1,1.2,0.1l-0.5,1.6
		c0,0-0.2,0-0.5,0c-0.5,0-1,0.3-1,0.9c0,0.4,0.3,0.8,0.9,0.8h1v-1.1h2.1v1.1h1.1v1.8h-1.1v0.8c0,1.5-1.2,2.8-3.3,2.8
		c-2,0-3.2-1.2-3.2-2.6C132.9,63.4,133.5,62.6,134.3,62.2z M136.1,65c0.8,0,1.2-0.4,1.2-1v-0.7h-1.2c-0.6,0-1.1,0.2-1.1,0.9
		C135.1,64.6,135.5,65,136.1,65z"/>
	<path style="fill:#FFFFFF;" d="M149,65h-2.7l-0.5,1.8h-2.2l2.9-8.6h2.2l2.9,8.6h-2.2L149,65z M147.6,60.1c0,0-0.2,0.9-0.3,1.5
		l-0.5,1.7h1.7l-0.5-1.7C147.8,61.1,147.7,60.1,147.6,60.1L147.6,60.1z"/>
	<path style="fill:#FFFFFF;" d="M152.4,60.6h2v1c0,0.2,0,0.4,0,0.4h0c0.3-0.8,1-1.5,2-1.5c0.1,0,0.2,0,0.2,0v2c0,0-0.2,0-0.4,0
		c-0.5,0-1.3,0.2-1.6,1.1c-0.1,0.2-0.1,0.5-0.1,0.8v2.3h-2.1V60.6z"/>
	<path style="fill:#FFFFFF;" d="M157.9,62.3h-0.8v-1.6h0.9v-1.8h2v1.8h1.3v1.6h-1.3v1.9c0,0.7,0.7,0.8,1.1,0.8c0.2,0,0.3,0,0.3,0
		v1.8c0,0-0.2,0-0.6,0c-1,0-2.9-0.3-2.9-2.3V62.3z"/>
	<path style="fill:#FFFFFF;" d="M162.5,60.6h2.1v6.2h-2.1V60.6z M162.5,58.2h2v1.6h-2V58.2z"/>
	<path style="fill:#FFFFFF;" d="M166.5,64.6c0,0,0.7,0.6,1.6,0.6c0.3,0,0.6-0.1,0.6-0.3c0-0.5-2.9-0.6-2.9-2.6
		c0-1.2,1.1-1.9,2.5-1.9c1.4,0,2.2,0.7,2.2,0.7l-0.7,1.5c0,0-0.6-0.5-1.5-0.5c-0.3,0-0.6,0.1-0.6,0.3c0,0.5,2.9,0.5,2.9,2.5
		c0,1.1-0.9,2-2.5,2c-1.5,0-2.5-0.9-2.5-0.9L166.5,64.6z"/>
	<path style="fill:#FFFFFF;" d="M172.1,62.3h-0.8v-1.6h0.9v-1.8h2v1.8h1.3v1.6h-1.3v1.9c0,0.7,0.7,0.8,1.1,0.8c0.2,0,0.3,0,0.3,0
		v1.8c0,0-0.2,0-0.6,0c-1,0-2.9-0.3-2.9-2.3V62.3z"/>
</g>
<g>
</g>
<g>
</g>
<g>
</g>
<g>
</g>
<g>
</g>
<g>
</g>
</svg>
