<?xml version="1.0" encoding="utf-8"?>
<!-- Generator: Adobe Illustrator 18.0.0, SVG Export Plug-In . SVG Version: 6.00 Build 0)  -->
<!DOCTYPE svg PUBLIC "-//W3C//DTD SVG 1.1//EN" "http://www.w3.org/Graphics/SVG/1.1/DTD/svg11.dtd">
<svg version="1.1" id="Layer_1" xmlns="http://www.w3.org/2000/svg" xmlns:xlink="http://www.w3.org/1999/xlink" x="0px" y="0px"
	 viewBox="0 0 204.7 48" style="enable-background:new 0 0 204.7 48;" xml:space="preserve">
<path style="fill:none;stroke:#FFFFFF;stroke-width:2;stroke-linecap:round;stroke-linejoin:round;stroke-miterlimit:10;" d="
	M10.6,20.4C9.6,15,12,9.9,14.4,9.5c2.5-0.4,4.2,2.4,4.9,4.8c1.9,6,3,12.3,3.2,18.5c-0.5-7-1.1-21,4-21.5c3.2-0.5,4.3,1.9,4.9,3.9
	c1.1,4,1.5,8.1,1.2,12.3c0.1-5.9-0.6-12.3,3.1-16.9c0.9-1.1,2.3-2.1,3.6-1.7c1.1,0.4,1.7,1.6,2.1,2.7c2,5.8,0.9,11.5,2.9,17.2
	c0.7,1.9,1.6,3.8,3.3,4.8c1.7,1,4.4,0.5,5-1.4"/>
<path style="fill:none;stroke:#FFFFFF;stroke-width:2;stroke-linecap:round;stroke-linejoin:round;stroke-miterlimit:10;" d="
	M55.9,21.1c-1.1-2.4-3.8-2.9-5.7-1.8c-1.9,1.1-2.8,3.4-2.9,5.5c-0.1,1.5,0.3,3.2,1.6,4c1.2,0.7,2.8,0.3,3.9-0.6
	c1.1-0.9,1.7-2.2,2.2-3.5c0.4-1.1,1.4-3.6,1.7-4.8c0,1.5-0.7,4.7-0.4,6.2c0.2,1.6,0.7,3.1,2.8,2.5"/>
<path style="fill:none;stroke:#FFFFFF;stroke-width:2;stroke-linecap:round;stroke-linejoin:round;stroke-miterlimit:10;" d="
	M67,20.7c-1.8-1.6-3.5-1.1-5.3,0.4c-2.1,1.7-2.5,7.2-0.3,8.1c2.9,1.2,6-1.7,7.6-4.3s2.5-5.7,2.6-8.8c0-1.2-0.2-4.8-1.2-5.4
	c-1.3-0.3-2.4,3.5-2.6,4.7c-0.4,2.3-0.7,4.6-0.2,6.8c0.5,2.2,0.9,6.5,3.2,7c3.3,0.7,7.8-4.2,8.2-6.7c0.4-2.1-1.6-3.8-2.9-3.5
	s-3.5,5.7-0.9,8.2c1.7,1.6,5.2,1.9,7.6,1.1c1.5-0.5,2.6-3.3,3.3-4.8c1.4-2.8,2.4-12.8-0.3-13c-2.6-0.3-2.9,4.5-3.1,5.5
	c-0.7,5.5-0.3,11.9,2.9,16.5c1.2,1.7,5.9,3.1,9-0.2"/>
<path style="fill:none;stroke:#FFFFFF;stroke-width:2;stroke-linecap:round;stroke-linejoin:round;stroke-miterlimit:10;" d="
	M89.4,28c1.7-0.6,1.9-1,3.1-2.5c1.2-1.5,1.5-4-0.4-5.3c-1.8-1.3-3.3,3-3.3,5.3C88.8,26.3,88.9,27.2,89.4,28c1.2,1.8,4.2,1.5,5.7-0.1
	c1.5-1.6,2.9-3.9,3.3-6c0.4,1.2,0.1,2.5,0.1,3.8s0.1,3.3,1.4,3.2c0.8-0.1,1.8-0.9,2.3-1.5c1.4-1.8,2.5-3.3,2.8-5.8
	c0.9,1.6,0.5,5.1,0.1,6.8c0.1-2.3,2.9-6.9,4.8-6.9c2.3,0,1.7,4.5,2.5,6c0.8,1.6,2.3,1.8,3.9,1.1c1.6-0.7,3.9-1.7,4.4-3.4
	c0.4-1.3,1.2-4.1-0.9-4.9c-2.2-0.9-3.7,5.8-1.7,7.3c2,1.5,4.7,1.5,6.3,0.6c1.1-0.6,3.2-2.3,3.8-3.7"/>
<path style="fill:none;stroke:#FFFFFF;stroke-width:2;stroke-linecap:round;stroke-linejoin:round;stroke-miterlimit:10;" d="
	M145.3,10.2c0.2-1.3-1-2.6-2.4-2.8c-1.4-0.2-2.7,0.5-3.8,1.3c-3.6,2.7-5.5,7.3-4.9,11.8c0.4,2.9,2,5.8,4.4,7.4
	c2.5,1.7,5.8,2,8.4,0.5c1.5-0.8,2.7-2.2,3.6-3.6c1.3-2.1,2-5,0.4-6.8c-0.5-0.6-1.3-1-2.1-0.8c-1,0.3-1.2,1.5-1.3,2.6
	c-0.1,3.6,1.2,7,1.6,10.6c0.4,3.6-0.5,7.7-3.7,9.4c-1.9,1.1-4.5,0.9-6.3-0.4c-0.8-0.6-1.5-1.7-0.9-2.5"/>
<path style="fill:none;stroke:#FFFFFF;stroke-width:2;stroke-linecap:round;stroke-linejoin:round;stroke-miterlimit:10;" d="
	M161,20.7c-1.9-0.9-4.8,0.1-5.8,2.6c-0.8,1.9-1.7,5.9,1,6.4c3.2,0.7,5.9-6.6,6.3-9.2c-0.5,2.2-0.8,3.4-1,4.9c-0.2,1.8-0.1,3.9,1.5,4
	c1,0.1,2.3-0.3,2.7-2.6"/>
<path style="fill:none;stroke:#FFFFFF;stroke-width:2;stroke-linecap:round;stroke-linejoin:round;stroke-miterlimit:10;" d="
	M173,21.6c-0.1-1.3-1.8-2.1-3.1-1.8s-2.3,1.4-3,2.5c-0.8,1.2-1.5,2.7-1.3,4.1c0.2,1.5,1.4,2.9,2.8,2.8c1.3,0,2.3-1.1,2.9-2.2
	C172.4,25.4,173,23.5,173,21.6c0.2,2.6,0.3,5.1,0.4,7.7c0.1,2.8,0.1,6-1.9,8.1c-1.2,1.2-3,1.7-4.7,1.4c-1.1-0.2-2.2-0.9-2.6-1.9
	c-0.4-1,0.1-2.4,1.2-2.7"/>
<path style="fill:none;stroke:#FFFFFF;stroke-width:2;stroke-linecap:round;stroke-linejoin:round;stroke-miterlimit:10;" d="
	M176.7,20.6c0.2,2.7,0.1,5.3-0.3,8c0.5-1.7,1-3.4,1.9-4.8s3.1-3.7,4.3-2.6c1.3,1.1-0.7,6.4,1,7.8c1.3,1.1,3.3-0.3,4.5-1.5
	c0.9-0.9,1.7-2,1.9-3.3s-0.2-3-1.8-3s-2.1,3.3-1.6,5.7s7.2,3.2,8.7,1.5"/>
<path style="fill:none;stroke:#FFFFFF;stroke-width:2;stroke-linecap:round;stroke-linejoin:round;stroke-miterlimit:10;" d="
	M186.8,17.4c1.7-0.3,3.1-1.7,3.4-3.4"/>
<path style="fill:none;stroke:#FFFFFF;stroke-width:2;stroke-linecap:round;stroke-linejoin:round;stroke-miterlimit:10;" d="
	M99,17.1c0.1-0.3,0.3-0.6,0.1-0.3"/>
<g>
</g>
<g>
</g>
<g>
</g>
<g>
</g>
<g>
</g>
<g>
</g>
</svg>
