<?xml version="1.0" encoding="utf-8"?>
<!-- Generator: Adobe Illustrator 18.1.1, SVG Export Plug-In . SVG Version: 6.00 Build 0)  -->
<!DOCTYPE svg PUBLIC "-//W3C//DTD SVG 1.1//EN" "http://www.w3.org/Graphics/SVG/1.1/DTD/svg11.dtd">
<svg version="1.1" id="Layer_1" xmlns="http://www.w3.org/2000/svg" xmlns:xlink="http://www.w3.org/1999/xlink" x="0px" y="0px"
	 viewBox="0 0 279 127.5" enable-background="new 0 0 279 127.5" xml:space="preserve">
<g>
	<path fill="#FFFFFF" d="M75.7,90.1c2,0,3,1,3,1l-0.4,0.6c0,0-1-0.8-2.5-0.8c-2,0-3.4,1.6-3.4,3.6c0,2.1,1.4,3.6,3.3,3.6
		c1.6,0,2.7-1.2,2.7-1.2v-1.4h-1.4v-0.7h2.2v4h-0.8V98c0-0.2,0-0.4,0-0.4h0c0,0-1,1.1-2.7,1.1c-2.3,0-4.1-1.9-4.1-4.4
		C71.4,92,73.3,90.1,75.7,90.1z"/>
	<path fill="#FFFFFF" d="M80.9,92.6h0.8v1.1c0,0.3,0,0.5,0,0.5h0c0.3-0.9,1-1.6,1.9-1.6c0.2,0,0.3,0,0.3,0v0.8c0,0-0.1,0-0.3,0
		c-0.9,0-1.5,0.7-1.8,1.6c-0.1,0.4-0.2,0.8-0.2,1.2v2.5h-0.8V92.6z"/>
	<path fill="#FFFFFF" d="M88.3,94.9h0.3v-0.2c0-1.2-0.6-1.6-1.5-1.6c-1,0-1.7,0.6-1.7,0.6l-0.4-0.6c0,0,0.8-0.7,2.1-0.7
		c1.5,0,2.3,0.8,2.3,2.3v3.9h-0.8V98c0-0.3,0-0.5,0-0.5h0c0,0-0.5,1.3-2,1.3c-1,0-2.1-0.6-2.1-1.8C84.6,95,87.3,94.9,88.3,94.9z
		 M86.8,98.1c1.2,0,1.8-1.2,1.8-2.2v-0.3h-0.3c-0.9,0-2.8,0-2.8,1.4C85.5,97.5,85.9,98.1,86.8,98.1z"/>
	<path fill="#FFFFFF" d="M91.4,92.6h0.8v0.6c0,0.3,0,0.5,0,0.5h0c0,0,0.5-1.2,2.1-1.2c1.6,0,2.6,1.3,2.6,3.2c0,1.9-1.1,3.2-2.7,3.2
		c-1.5,0-2-1.2-2-1.2h0c0,0,0,0.2,0,0.5v2.9h-0.8V92.6z M94.1,98.1c1.1,0,1.9-0.9,1.9-2.4c0-1.5-0.8-2.4-1.9-2.4c-1,0-2,0.7-2,2.4
		C92.2,96.9,92.8,98.1,94.1,98.1z"/>
	<path fill="#FFFFFF" d="M98.4,90.2h0.8v3.3c0,0.3,0,0.5,0,0.5h0c0.2-0.6,1-1.5,2.4-1.5c1.5,0,2,0.9,2,2.3v3.8h-0.8v-3.6
		c0-0.9-0.1-1.8-1.3-1.8c-1,0-1.9,0.7-2.2,1.7c-0.1,0.2-0.1,0.5-0.1,0.8v2.9h-0.8V90.2z"/>
	<path fill="#FFFFFF" d="M105.5,90.2h0.9v1h-0.9V90.2z M105.6,92.6h0.8v6h-0.8V92.6z"/>
	<path fill="#FFFFFF" d="M111.1,92.5c1.5,0,2.2,0.9,2.2,0.9l-0.4,0.6c0,0-0.7-0.7-1.8-0.7c-1.3,0-2.4,1-2.4,2.4c0,1.4,1,2.4,2.4,2.4
		c1.2,0,1.9-0.9,1.9-0.9l0.4,0.6c0,0-0.8,0.9-2.4,0.9c-1.8,0-3.2-1.3-3.2-3.2C107.9,93.8,109.3,92.5,111.1,92.5z"/>
	<path fill="#FFFFFF" d="M118.4,90.2h2.7c2.5,0,4.2,1.5,4.2,4.2c0,2.7-1.7,4.2-4.2,4.2h-2.7V90.2z M121,97.9c2.1,0,3.5-1.2,3.5-3.5
		c0-2.2-1.4-3.5-3.5-3.5h-1.8v6.9H121z"/>
	<path fill="#FFFFFF" d="M129.6,92.5c1.7,0,2.5,1.3,2.5,2.8c0,0.1,0,0.4,0,0.4h-4.6c0,1.5,1.1,2.4,2.3,2.4c1.1,0,1.8-0.7,1.8-0.7
		L132,98c0,0-0.9,0.8-2.2,0.8c-1.8,0-3.2-1.3-3.2-3.2C126.6,93.7,128,92.5,129.6,92.5z M131.3,95c0-1.3-0.8-1.8-1.7-1.8
		c-1,0-1.9,0.6-2.1,1.8H131.3z"/>
	<path fill="#FFFFFF" d="M133.6,97.4c0,0,0.7,0.7,1.8,0.7c0.6,0,1.2-0.3,1.2-1c0-1.3-3.2-1-3.2-3c0-1.1,1-1.7,2.1-1.7
		c1.3,0,1.9,0.7,1.9,0.7l-0.4,0.6c0,0-0.5-0.6-1.5-0.6c-0.6,0-1.2,0.3-1.2,0.9c0,1.3,3.2,1,3.2,3c0,1-0.9,1.7-2.1,1.7
		c-1.5,0-2.2-0.9-2.2-0.9L133.6,97.4z"/>
	<path fill="#FFFFFF" d="M139,90.2h0.9v1H139V90.2z M139,92.6h0.8v6H139V92.6z"/>
	<path fill="#FFFFFF" d="M143.9,100.5c1.2,0,2.1-0.6,2.1-1.9V98c0-0.2,0-0.4,0-0.4h0c-0.4,0.7-1,1.1-1.9,1.1c-1.6,0-2.7-1.3-2.7-3.1
		c0-1.8,1-3,2.6-3c1.6,0,2,1,2,1h0c0,0,0-0.1,0-0.2v-0.7h0.8v5.9c0,1.9-1.4,2.7-2.9,2.7c-0.7,0-1.4-0.2-2-0.5l0.3-0.7
		C142.2,100,143,100.5,143.9,100.5z M146,95.5c0-1.8-0.8-2.3-1.9-2.3c-1.2,0-1.9,0.9-1.9,2.3c0,1.4,0.8,2.4,2,2.4
		C145.1,97.9,146,97.3,146,95.5z"/>
	<path fill="#FFFFFF" d="M148.8,92.6h0.8v0.9c0,0.3,0,0.5,0,0.5h0c0.2-0.6,1-1.5,2.4-1.5c1.5,0,2,0.9,2,2.3v3.8h-0.8v-3.6
		c0-0.9-0.1-1.8-1.3-1.8c-1,0-1.9,0.7-2.2,1.7c-0.1,0.3-0.1,0.5-0.1,0.8v2.9h-0.8V92.6z"/>
	<path fill="#FFFFFF" d="M158.4,92.5c1.7,0,2.5,1.3,2.5,2.8c0,0.1,0,0.4,0,0.4h-4.6c0,1.5,1.1,2.4,2.3,2.4c1.1,0,1.8-0.7,1.8-0.7
		l0.4,0.6c0,0-0.9,0.8-2.2,0.8c-1.8,0-3.2-1.3-3.2-3.2C155.5,93.7,156.8,92.5,158.4,92.5z M160.1,95c0-1.3-0.8-1.8-1.7-1.8
		c-1,0-1.9,0.6-2.1,1.8H160.1z"/>
	<path fill="#FFFFFF" d="M162.5,92.6h0.8v1.1c0,0.3,0,0.5,0,0.5h0c0.3-0.9,1-1.6,1.9-1.6c0.2,0,0.3,0,0.3,0v0.8c0,0-0.1,0-0.3,0
		c-0.9,0-1.5,0.7-1.8,1.6c-0.1,0.4-0.2,0.8-0.2,1.2v2.5h-0.8V92.6z"/>
	<path fill="#FFFFFF" d="M171.3,94.1L171.3,94.1c0,0-1.2-0.4-1.2-1.9c0-1.3,1-2.1,2.5-2.1c0.4,0,1,0.1,1,0.1l-0.2,0.7
		c0,0-0.4-0.1-0.7-0.1c-0.9,0-1.7,0.5-1.7,1.5c0,0.6,0.2,1.5,1.8,1.5h1.8v-1.2h0.8v1.2h1.1v0.7h-1.1v1.2c0,2-1.1,3-2.8,3
		c-1.7,0-2.8-1.1-2.8-2.5C169.7,95.4,170.3,94.4,171.3,94.1z M172.6,98c1.2,0,2-0.7,2-2.3v-1.2h-1.8c-1.5,0-2.2,0.7-2.2,1.8
		C170.6,97.3,171.3,98,172.6,98z"/>
	<path fill="#FFFFFF" d="M185.7,96h-3.4l-1,2.7h-0.9l3.1-8.4h0.9l3.1,8.4h-0.9L185.7,96z M184,91.1c0,0-0.2,0.7-0.3,1.1l-1.1,3.1
		h2.9l-1.1-3.1C184.2,91.8,184,91.1,184,91.1L184,91.1z"/>
	<path fill="#FFFFFF" d="M188.7,92.6h0.8v1.1c0,0.3,0,0.5,0,0.5h0c0.3-0.9,1-1.6,1.9-1.6c0.2,0,0.3,0,0.3,0v0.8c0,0-0.1,0-0.3,0
		c-0.9,0-1.5,0.7-1.8,1.6c-0.1,0.4-0.2,0.8-0.2,1.2v2.5h-0.8V92.6z"/>
	<path fill="#FFFFFF" d="M193.2,93.4h-0.8v-0.7h0.8V91h0.8v1.7h1.5v0.7H194v3c0,1.4,0.9,1.6,1.4,1.6c0.2,0,0.3,0,0.3,0v0.7
		c0,0-0.1,0-0.3,0c-0.7,0-2.1-0.2-2.1-2.2V93.4z"/>
	<path fill="#FFFFFF" d="M197,90.2h0.9v1H197V90.2z M197,92.6h0.8v6H197V92.6z"/>
	<path fill="#FFFFFF" d="M199.7,97.4c0,0,0.7,0.7,1.8,0.7c0.6,0,1.2-0.3,1.2-1c0-1.3-3.2-1-3.2-3c0-1.1,1-1.7,2.1-1.7
		c1.3,0,1.9,0.7,1.9,0.7l-0.4,0.6c0,0-0.5-0.6-1.5-0.6c-0.6,0-1.2,0.3-1.2,0.9c0,1.3,3.2,1,3.2,3c0,1-0.9,1.7-2.1,1.7
		c-1.5,0-2.2-0.9-2.2-0.9L199.7,97.4z"/>
	<path fill="#FFFFFF" d="M205.3,93.4h-0.8v-0.7h0.8V91h0.8v1.7h1.5v0.7h-1.5v3c0,1.4,0.9,1.6,1.4,1.6c0.2,0,0.3,0,0.3,0v0.7
		c0,0-0.1,0-0.3,0c-0.7,0-2.1-0.2-2.1-2.2V93.4z"/>
</g>
<g>
	<path fill="#FFFFFF" d="M240.4,42.7c-0.3,0-0.5-0.2-0.6-0.4c-0.2-0.3,0-0.8,0.4-0.9c0.6-0.3,1.3-0.5,1.9-0.8
		c1.2-0.4,2.4-0.9,3.3-1.4c0.3-0.2,0.8-0.1,0.9,0.3c0.2,0.3,0.1,0.8-0.3,0.9c-1.1,0.6-2.3,1.1-3.6,1.5c-0.7,0.2-1.3,0.5-1.9,0.7
		C240.6,42.7,240.5,42.7,240.4,42.7z"/>
	<path fill="#FFFFFF" d="M70.5,65.1c-2.4,0-4.4-0.6-5.9-1.8c-4.3-3.3-4.2-10.5-4.2-17.5c0-7.2,0.1-14-4.7-15c-0.9-0.2-1.7,0-2.4,0.6
		C49.5,34.5,49.5,48,49.5,56c0,1.5,0,2.7,0,3.8c0,0.4-0.3,0.7-0.7,0.7c-0.3,0-0.7-0.3-0.7-0.7c-0.2-6-2.4-22.1-6.7-25.8
		c-0.7-0.6-1.4-0.9-2.2-0.8c-4.6,0.4-4.8,11.1-4.4,20.1c0.3,3,0.5,6.1,0.6,9.3c0,0.4-0.3,0.7-0.7,0.7c-0.4,0-0.7-0.3-0.7-0.6
		c-0.1-0.8-0.1-1.7-0.2-2.6c-0.2-2.1-0.3-4.4-0.4-6.7c-0.6-5.8-1.7-11.5-3.2-17.1c-0.6-2.4-2.1-5-3.4-5.1c-0.7,0-2,0.6-3.7,4.9
		c-0.1,0.4-0.5,0.5-0.9,0.4c-0.4-0.1-0.5-0.5-0.4-0.9c1.5-4,3.2-5.9,5.1-5.8c2.3,0.1,4,3.4,4.7,6.1c0.7,2.5,1.3,5.1,1.8,7.7
		c0.4-6.3,1.8-11.3,5.7-11.6c1.1-0.1,2.2,0.2,3.2,1.1c3,2.6,4.8,9.3,5.9,15.4c0.2-7.5,1-15.5,4.3-18.2c1-0.8,2.2-1.1,3.5-0.8
		c5.9,1.2,5.9,8.6,5.8,16.4c0,6.6-0.1,13.5,3.6,16.4c2.2,1.7,5.5,1.9,10.2,0.7c0.4-0.1,0.7,0.1,0.8,0.5c0.1,0.4-0.1,0.7-0.5,0.8
		C73.9,64.8,72.1,65.1,70.5,65.1z"/>
	<path fill="#FFFFFF" d="M70.4,60.9c-0.8,0-1.6-0.2-2.4-0.7c-2.6-1.4-2.9-4.7-2.9-6.1c0-4,1.5-7.2,4.1-8.5c2.4-1.3,4.8-0.7,6.4,1.4
		c0-0.2,0-0.3,0-0.5c0-0.4,0.3-0.7,0.7-0.6c0.4,0,0.7,0.3,0.7,0.7c0,0.9-0.1,2.4-0.3,4.1c-0.3,2.4-0.6,5.3-0.4,6.5
		c0.2,0.8,0.7,1.1,1.2,1.3c1,0.3,2.2,0,3.1-0.7c0.3-0.2,0.7-0.2,1,0.1c0.3,0.3,0.2,0.7-0.1,1c-1.3,1.1-3,1.5-4.4,1
		c-1-0.3-1.7-1.1-2-2.1c-0.4,0.7-1,1.4-1.6,2C72.5,60.5,71.5,60.9,70.4,60.9z M71.8,46.3c-0.6,0-1.2,0.2-1.9,0.5
		c-2.5,1.3-3.4,4.7-3.4,7.3c0,0.9,0.1,3.8,2.1,4.9c1.5,0.8,2.6,0.7,3.8-0.5c1.4-1.3,2.3-3.1,2.5-4.8c0-0.1,0-0.1,0-0.2
		c0.1-0.9,0.2-2.1,0.3-3.3c0.1-0.6,0.1-1.3,0.2-1.9c-0.3,0.1-0.6,0-0.8-0.3C73.9,46.9,72.9,46.3,71.8,46.3z"/>
	<path fill="#FFFFFF" d="M204.9,61c-0.8,0-1.7-0.3-2.5-0.8c-2.5-1.5-2.6-4.9-2.6-6.2c0.2-4,1.9-7.1,4.5-8.3c2.4-1.2,4.8-0.5,6.3,1.7
		c0-0.2,0-0.3,0.1-0.5c0-0.4,0.4-0.6,0.7-0.6c0.4,0,0.6,0.3,0.6,0.7c0,0.9-0.3,2.4-0.5,4.1c-0.4,2.3-0.9,5.3-0.7,6.4
		c0.1,0.7,0.4,1.1,0.8,1.3c0.8,0.4,2.1,0.2,3.6-0.6c0.3-0.2,0.8-0.1,0.9,0.3c0.2,0.3,0.1,0.8-0.3,0.9c-1.9,1-3.7,1.3-4.9,0.6
		c-0.8-0.4-1.3-1.1-1.5-2.1c-0.5,0.7-1.1,1.3-1.7,1.9C206.9,60.6,205.9,61,204.9,61z M206.7,46.5c-0.6,0-1.1,0.1-1.8,0.4
		c-2.5,1.2-3.6,4.5-3.7,7.2c0,0.9,0,3.8,1.9,5c1.4,0.9,2.6,0.8,3.9-0.3c1.4-1.2,2.5-3,2.7-4.6c0-0.1,0-0.2,0-0.3
		c0.1-0.9,0.3-2.1,0.5-3.2c0.1-0.6,0.2-1.3,0.3-1.9c-0.3,0.1-0.6,0-0.8-0.3C208.9,47.1,207.9,46.5,206.7,46.5z"/>
	<path fill="#FFFFFF" d="M112.4,61.1c-1.1,0-2-0.4-2.8-1.1c-0.4-0.4-0.8-0.9-1.1-1.4c-1.4,1.3-2.9,2-4.2,2.1c-1.6,0.2-3.7,0-5.4-1
		c-1.5,1.1-3.4,1.7-5.6,1c-1.2-0.4-2.3-1.6-3.1-3.2c-1.3,2-3.2,3.5-6,3.6c-2.6,0.1-4.5-2.5-4.7-6.6c-0.2-4.3,1.5-8.8,4.6-9
		c1.8-0.1,2.9,0.4,3.6,1.3c-0.1-1.2,0-2.2,0-3c0-0.1,1.2-11,3.9-13.1c0.5-0.4,1-0.4,1.4-0.4c0.4,0.1,0.9,0.3,1.3,1
		c2,3.3,0,15.4-1.3,19.5c-0.6,1.7-1.2,3.6-2,5.3c0.7,1.7,1.6,3,2.6,3.3c1.5,0.5,2.8,0.1,4-0.5c-0.1-0.1-0.2-0.2-0.3-0.3
		c-1.7-1.8-2.3-4.4-1.7-7.8c0.4-2.4,1.6-4.4,3-5.3c0.9-0.6,2-0.8,3.1-0.6c0.9,0.2,1.6,0.8,2,1.7c1,2,0.4,5.3-0.5,7.4
		c-0.6,1.3-1.7,3.3-3.3,4.8c1.4,0.6,2.9,0.8,4.1,0.6c1.2-0.2,2.5-0.8,3.8-2.1c-1.8-4.8-1.2-12.5-1.1-13.5c0.1-0.5,1.3-13.4,5.6-13.4
		c0,0,0,0,0.1,0c0.7,0,1.4,0.4,1.8,1c2.5,3.2,0.3,14-0.1,16.2c-1,4.5-2.7,7.9-4.7,10.1c0.3,0.6,0.6,1.1,1,1.5
		c0.7,0.6,1.4,0.9,2.4,0.7c1.2-0.3,2.4-1,3.5-1.8c-0.8-1.4-1.6-4-0.4-7.3c0.7-1.8,2.2-4,4.1-4.8c1-0.4,2.1-0.4,3.1,0.1
		c0.5,0.2,1.3,0.9,1.1,2.6c-0.3,2.6-2.8,6.8-6.1,9.7c0.8,0.9,2.2,1.5,3.6,1.6c1.4,0,2.7-0.4,3.5-1.3c1.8-1.9,3.4-8.6,4-12.3
		c0.1-0.4,0.4-0.6,0.8-0.6c0.4,0,0.6,0.4,0.6,0.7c-0.3,3.5-0.4,6.4-0.4,8.4l0,0.3c0.1,2.2,0.3,4.4,2.1,4.5c0.5,0,1-0.2,1.5-0.6
		c1.9-1.8,3.1-6.8,3.3-13.3c0-0.4,0.3-0.7,0.6-0.7c0.3,0,0.7,0.2,0.7,0.6c0.1,0.9,0.2,2.4,0.2,4c0.4-1,1-1.8,1.6-2.5
		c1.1-1,2.4-1.4,4-1.2c4.4,0.4,3.9,5.7,3.6,8.9c-0.1,0.7-0.1,1.2-0.1,1.7c0,1,0.1,2.6,0.9,2.9c0.8,0.3,2.1-0.4,3.5-1.4
		c0,0,0-0.1-0.1-0.1c-1.3-2-2.3-6.3-0.2-9.3c1.2-1.7,3.1-3,4.8-3.3c0.9-0.1,1.6,0.1,2.1,0.5c2.7,2.4,0.8,6.4-0.6,8.2
		c0,0-1.9,2.3-4.1,4.2c1.1,1.1,2.3,1.6,3.8,1.5c3.8-0.3,8-4.8,8.5-5.9c0.2-0.3,0.6-0.5,0.9-0.3c0.3,0.2,0.5,0.6,0.3,0.9
		c-0.7,1.5-5.2,6.4-9.6,6.7c-1.9,0.2-3.6-0.5-5-2c-1.7,1.2-3.5,2.1-4.8,1.6c-1.3-0.4-1.9-1.9-1.9-4.2c0-0.5,0.1-1.1,0.1-1.8
		c0.4-3.7,0.4-7.1-2.4-7.3c-1.2-0.1-2.2,0.2-3,0.9c-2.7,2.4-2.6,9.5-2.6,11.8c0,0.4-0.3,0.7-0.6,0.7c-0.4,0-0.7-0.2-0.7-0.6
		c-0.1-0.9-0.1-2.6-0.1-4.6c-0.6,2-1.4,3.6-2.4,4.5c-0.7,0.7-1.6,1-2.5,1c-3.2-0.2-3.3-4-3.4-5.9l0-0.2c0-0.3,0-0.5,0-0.8
		c-0.7,2.2-1.6,4.4-2.6,5.5c-1.1,1.1-2.8,1.8-4.6,1.7c-1.9-0.1-3.6-0.8-4.6-2.1c-1.3,0.9-2.6,1.7-4,2.1
		C112.9,61,112.7,61.1,112.4,61.1z M84.7,46.7c-0.1,0-0.3,0-0.5,0c-2.2,0.1-3.5,4-3.3,7.6c0.1,2.5,1,5.4,3.3,5.3
		c2.5-0.1,4.1-1.5,5.4-3.8c-0.7-1.9-1.2-4.2-1.5-6.4c-0.3,0-0.5-0.2-0.6-0.5C86.9,47.3,86.3,46.7,84.7,46.7z M100.9,46.1
		c-0.5,0-1,0.1-1.4,0.4c-1.1,0.8-2.1,2.4-2.4,4.4c-0.5,2.9-0.1,5.1,1.3,6.6c0.1,0.1,0.3,0.3,0.4,0.4c1.6-1.4,2.7-3.5,3.2-4.7
		c0.8-1.8,1.3-4.7,0.5-6.2c-0.2-0.5-0.6-0.8-1.1-0.9C101.3,46.1,101.1,46.1,100.9,46.1z M157.4,46.5c-0.1,0-0.2,0-0.3,0
		c-1.1,0.1-2.8,1-3.9,2.7c-1.6,2.4-0.9,6.1,0.2,7.8c0,0,0,0,0,0c1.6-1.3,3.1-2.9,3.9-3.9c1.3-1.7,2.6-4.8,0.8-6.4
		C158,46.6,157.7,46.5,157.4,46.5z M121.6,46.8c-0.3,0-0.6,0.1-0.9,0.2c-1.5,0.6-2.8,2.5-3.3,4c-1,2.7-0.4,4.8,0.2,6
		c3-2.6,5.3-6.4,5.5-8.7c0.1-0.6-0.1-1.1-0.4-1.2C122.3,46.9,122,46.8,121.6,46.8z M112.4,31.7c-2,0-3.7,7.2-4.2,12.1
		c-0.3,3.1-0.4,8.6,0.8,12.2c1.6-2,3-5,3.9-8.9c1.3-5.9,1.9-13.1,0.4-15C113,31.8,112.8,31.7,112.4,31.7
		C112.5,31.7,112.4,31.7,112.4,31.7z M92.8,31.6c0,0-0.1,0-0.3,0.1c-1.5,1.2-2.9,7.8-3.4,12.1c-0.3,2.6,0.2,6.9,1.2,10.3
		c0.5-1.2,0.9-2.5,1.4-3.9c1.4-4.3,3-15.8,1.4-18.4C93.1,31.7,93,31.6,92.8,31.6C92.9,31.6,92.9,31.6,92.8,31.6z"/>
	<path fill="#FFFFFF" d="M185.2,79.1c-1.1,0-2.2-0.3-3.1-0.8c-1.5-0.8-3.4-2.8-3.9-7.2c0-0.4,0.2-0.7,0.6-0.8c0.4,0,0.7,0.2,0.8,0.6
		c0.3,3,1.4,5.2,3.2,6.2c1.5,0.8,3.4,0.8,5.1,0c5.1-2.4,6.8-9,6.2-14c-0.1-1.2-0.4-2.4-0.6-3.6c-0.7,0.5-1.4,0.9-2.2,1.3
		c-4.5,2.1-9.2,1.9-13.8-0.8c-3.9-2.2-6.1-6.1-6.6-11.5c-0.4-4.3,1.1-10.9,5.3-15.4c3-3.2,6.7-4.8,11.2-4.8c0,0,0,0,0,0
		c4.2,0,8.3,3.6,8.5,7.6c0,0.4-0.3,0.7-0.6,0.7c-0.4,0-0.7-0.3-0.7-0.6c-0.2-3.2-3.7-6.3-7.1-6.3c0,0,0,0,0,0
		c-4.1,0-7.5,1.5-10.2,4.4c-3.9,4.2-5.2,10.4-4.9,14.4c0.4,5,2.4,8.4,5.9,10.4c4.3,2.4,8.5,2.7,12.6,0.8c0.8-0.4,1.7-0.9,2.4-1.5
		c-0.1-0.4-0.2-0.7-0.3-1.1c-0.8-3.1-1.5-6.3-1.4-9.6c0.1-2.3,1.1-3.9,2.7-4.4c1.7-0.5,3.4,0.4,4.3,1.3c3.2,3.1,1.6,7.8-0.7,11
		c-0.9,1.3-2,2.4-3.1,3.4c0.3,1.4,0.6,2.9,0.8,4.4c0.7,5.5-1.2,12.7-7,15.4C187.4,78.9,186.3,79.1,185.2,79.1z M195.1,44.2
		c-0.2,0-0.4,0-0.6,0.1c-1.4,0.4-1.7,2.1-1.7,3.1c-0.1,3.1,0.6,6,1.4,9.2c0,0.1,0.1,0.3,0.1,0.4c0.8-0.8,1.6-1.7,2.3-2.7
		c2-2.7,3.4-6.7,0.8-9.2C196.8,44.6,195.9,44.2,195.1,44.2z"/>
	<path fill="#FFFFFF" d="M225.5,63.2c0-1.9,0-3.9-0.1-5.8c-0.1-1.7-0.1-3.3-0.1-4.9c0-0.9,0-1.9,0.1-2.7c0-0.3-0.1-0.5-0.3-0.6
		c0.2-0.2,0.2-0.4,0.2-0.6c-0.6-2.7-3.4-4.1-6.7-3.4c-3.9,0.7-5,7.3-4.9,9.3c0.3,3.5,2.1,5.8,4.5,5.7c2-0.1,4-1.3,5.1-3
		c0.3-0.5,0.6-0.9,0.8-1.4c0,0.6,0,1.2,0.1,1.8c0.1,2,0.1,4.2,0.1,6.2C224.5,63.5,225,63.4,225.5,63.2z M223.9,49.7
		c-0.2,2.4-0.5,4.4-2,6.7c-0.8,1.3-2.4,2.3-4,2.4c-1.7,0.1-2.9-1.7-3.1-4.4c-0.2-2.1,1.1-7.4,3.8-7.9c0.4-0.1,0.9-0.1,1.3-0.1
		c1.7,0,3.3,0.6,3.8,2.5c0,0.2,0.2,0.3,0.3,0.4C224,49.4,223.9,49.5,223.9,49.7z M257.1,64.9c-0.1-0.9-0.7-1.6-1.7-2.1
		c-4.9-2.8-21.2-1.3-29.9,0.9l-1.4,0.4c-9.3,2-11.1,10-11,12.1c0.1,2.2,1.1,3.9,2.7,4.4c1.1,0.3,3.4,0.3,6.2-3.5
		c1.7-2.3,3.4-6.4,3.5-11.9c8.2-2.1,24.8-3.7,29.3-1.1c0.6,0.3,0.9,0.7,1,1.1c0,0.1,0,0.3-0.2,0.6c-2.1,2.3-14.3,2.7-29.9,2.3
		c-0.1,0.4,0,0.8-0.1,1.3c17.4,0.5,28.6-0.1,31-2.7C257,66.1,257.2,65.5,257.1,64.9z M224,66.4C224,66.4,224,66.4,224,66.4v0.1
		c0,0.1,0,0.3-0.1,0.6c0,0.3,0,0.5-0.1,0.8l-0.2,1.4c-0.5,2.6-1.3,4.9-2.8,6.9c-1.7,2.3-3.4,3.3-4.6,3c-1-0.3-1.6-1.5-1.7-3.1
		c-0.1-2,2.1-8.2,7.2-10c0.5-0.2,1.6-0.4,2.3-0.6C224,65.8,224,66.1,224,66.4z M183.7,66c-19-1.1-37-2.1-48.2-1.9
		c-33.7,0.7-84.5,1.7-108.7,15.3c-0.3,0.2-0.5,0.6-0.3,0.9c0.1,0.2,0.4,0.4,0.6,0.4c0.1,0,0.2,0,0.3-0.1
		c23.8-13.4,74.5-14.4,108-15.1c11.2-0.2,29.1,0.8,48.1,1.9c11.6,0.7,22.4,1.3,31.5,1.7c0.4-0.4,0.9-0.9,1.3-1.3
		C206.1,67.3,194.5,66.6,183.7,66z"/>
	<path fill="#FFFFFF" d="M223.4,68c-0.1,0.4-0.2,0.9-0.2,1.4c-0.2,0-4.1-0.1-5.1-0.2c0.4-0.6,0.5-0.7,1.3-1.3
		C219.7,67.9,223.3,68,223.4,68C223.4,68,223.4,68,223.4,68z"/>
	<path fill="#FFFFFF" d="M227.6,61c0,0-0.1,0-0.1,0c-0.4-0.1-0.6-0.4-0.6-0.8c0.4-3.4,0.9-9.9,0.7-13.6c-0.1-0.1-0.1-0.2-0.3-0.2
		c-0.3-0.1-0.8,0.2-1.3,0.6c-0.3,0.2-0.7,0.2-1-0.1c-0.2-0.3-0.2-0.7,0.1-1c0.9-0.8,1.8-1.1,2.5-0.9c0.9,0.2,1.2,1,1.3,1.1
		c0,0.1,0.1,0.2,0.1,0.2c0.1,1.1,0.1,2.4,0,3.7c1.4-3.5,3.8-5.1,6.6-4.2c2.2,0.7,2.1,4,2,7.3c-0.1,2.3-0.1,4.9,0.7,5.6
		c0.9,0.7,1.4,0.4,2.9-0.8c0.3-0.2,0.5-0.4,0.8-0.7c-1.9-2.2-2.6-5.2-1.6-8.2c0.9-2.8,3.9-4.7,6.4-4c0.9,0.3,1.6,0.9,2,1.7
		c0.6,1.2,0.4,2.9-0.5,4.9c-1.1,2.6-2.8,4.6-4.1,5.7c2.7,2,6.3,2.1,9.9,0.2c0.3-0.2,0.8-0.1,0.9,0.3c0.2,0.3,0.1,0.8-0.3,0.9
		c-4.2,2.3-8.6,2.1-11.7-0.5c0,0,0,0,0,0c-0.3,0.2-0.6,0.5-0.9,0.7c-1.3,1.1-2.9,2.4-4.7,0.8c-1.3-1.1-1.3-3.8-1.2-6.7
		c0.1-2.5,0.1-5.6-1.1-5.9c-2.1-0.7-4,0.9-5.1,4c-0.4,1.2-0.7,3.1-1,5c-0.3,1.6-0.5,3.2-0.8,4.3C228.1,60.8,227.9,61,227.6,61z
		 M245.7,46.3c-1.6,0-3.4,1.4-4,3.2c-0.8,2.5-0.2,5.1,1.4,6.9c1.1-0.9,2.7-2.8,3.9-5.4c0.7-1.6,0.9-2.9,0.5-3.8
		c-0.2-0.5-0.6-0.8-1.2-0.9C246.2,46.4,245.9,46.3,245.7,46.3z"/>
	<path fill="#FFFFFF" d="M131.9,41.5c-0.2,0.1-0.4,0.1-0.6,0c-0.5-0.2-0.7-0.7-0.5-1.1l0.1-0.3c0.2-0.5,0.7-0.7,1.1-0.5
		c0.5,0.2,0.7,0.7,0.5,1.1l-0.1,0.3C132.4,41.3,132.2,41.4,131.9,41.5z"/>
	<path fill="#FFFFFF" d="M224,66.5C224,66.5,224,66.5,224,66.5L224,66.5C224,66.5,224,66.5,224,66.5z"/>
</g>
</svg>
