<?xml version="1.0" encoding="utf-8"?>
<!-- Generator: Adobe Illustrator 18.0.0, SVG Export Plug-In . SVG Version: 6.00 Build 0)  -->
<!DOCTYPE svg PUBLIC "-//W3C//DTD SVG 1.1//EN" "http://www.w3.org/Graphics/SVG/1.1/DTD/svg11.dtd">
<svg version="1.1" xmlns="http://www.w3.org/2000/svg" xmlns:xlink="http://www.w3.org/1999/xlink" x="0px" y="0px"
	 viewBox="0 0 121 133" style="enable-background:new 0 0 121 133;" xml:space="preserve">
<g id="Layer_2" style="display:none;">
	
		<rect x="-10" y="49.5" style="display:inline;fill:none;stroke:#000000;stroke-width:0.3258;stroke-miterlimit:10;" width="527" height="39.5"/>
</g>
<g id="Layer_1">
	<circle cx="62.5" cy="67" r="46.5"/>
	<path style="fill:#FFFFFF;" d="M87.6,51.4c-1.8,0.8-3.8,1.4-5.9,1.6c2.1-1.3,3.8-3.3,4.5-5.7c-2,1.2-4.2,2-6.5,2.5
		c-1.9-2-4.6-3.3-7.5-3.3c-5.7,0-10.3,4.6-10.3,10.3c0,0.8,0.1,1.6,0.3,2.3c-8.6-0.4-16.2-4.5-21.2-10.8c-0.9,1.5-1.4,3.3-1.4,5.2
		c0,3.6,1.8,6.7,4.6,8.6c-1.7-0.1-3.3-0.5-4.7-1.3v0.1c0,5,3.6,9.2,8.3,10.1c-0.9,0.2-1.8,0.4-2.7,0.4c-0.7,0-1.3-0.1-1.9-0.2
		c1.3,4.1,5.1,7.1,9.6,7.2c-3.5,2.8-8,4.4-12.8,4.4c-0.8,0-1.7-0.1-2.5-0.1c4.6,2.9,10,4.6,15.8,4.6c19,0,29.3-15.7,29.3-29.3
		c0-0.4,0-0.9,0-1.3C84.5,55.3,86.2,53.5,87.6,51.4z"/>
	<g>
	</g>
	<g>
	</g>
	<g>
	</g>
	<g>
	</g>
	<g>
	</g>
	<g>
	</g>
</g>
</svg>
