<?xml version="1.0" encoding="utf-8"?>
<!-- Generator: Adobe Illustrator 18.1.1, SVG Export Plug-In . SVG Version: 6.00 Build 0)  -->
<!DOCTYPE svg PUBLIC "-//W3C//DTD SVG 1.1//EN" "http://www.w3.org/Graphics/SVG/1.1/DTD/svg11.dtd">
<svg version="1.1" id="Layer_1" xmlns="http://www.w3.org/2000/svg" xmlns:xlink="http://www.w3.org/1999/xlink" x="0px" y="0px"
	 viewBox="0 0 612 792" enable-background="new 0 0 612 792" xml:space="preserve">
<g id="Layer_2" display="none">
	
		<rect x="-50.6" y="310" display="inline" fill="none" stroke="#000000" stroke-width="0.3258" stroke-miterlimit="10" width="2665.5" height="199.8"/>
</g>
<g id="Layer_1_2_">
	<circle fill="#C1B4D3" cx="314.8" cy="398.6" r="235.2"/>
	<path fill="#FFFFFF" d="M431,345.3c-13.3,74.1-86.6,136.5-108.2,150.7c-22.1,14.2-42-5.8-49.5-20.8c-8.3-17.1-33.3-110.7-40-118.6
		c-6.7-7.9-26.2,7.9-26.2,7.9l-9.6-12.5c0,0,40-47.9,70.3-53.7c32.1-6.2,32.1,49.5,40,80.3c7.5,30,12.5,47,19.1,47
		s19.1-16.7,32.9-42.5c13.7-25.8-0.4-48.3-27.5-32.1C342.7,287.1,444.3,271.7,431,345.3z"/>
</g>
</svg>
