<?xml version="1.0" encoding="utf-8"?>
<!-- Generator: Adobe Illustrator 18.0.0, SVG Export Plug-In . SVG Version: 6.00 Build 0)  -->
<!DOCTYPE svg PUBLIC "-//W3C//DTD SVG 1.1//EN" "http://www.w3.org/Graphics/SVG/1.1/DTD/svg11.dtd">
<svg version="1.1" xmlns="http://www.w3.org/2000/svg" xmlns:xlink="http://www.w3.org/1999/xlink" x="0px" y="0px"
	 viewBox="0 0 121 133" style="enable-background:new 0 0 121 133;" xml:space="preserve">
<g id="Layer_2" style="display:none;">
	
		<rect x="-10" y="49.5" style="display:inline;fill:none;stroke:#000000;stroke-width:0.3258;stroke-miterlimit:10;" width="527" height="39.5"/>
</g>
<g id="Layer_1">
	<circle style="fill:#C2B5D5;" cx="62.5" cy="67" r="46.5"/>
	<path style="fill:#FFFFFF;" d="M90.4,53.7c-3.2,17.8-20.8,32.8-26,36.2c-5.3,3.4-10.1-1.4-11.9-5c-2-4.1-8-26.6-9.6-28.5
		c-1.6-1.9-6.3,1.9-6.3,1.9l-2.3-3c0,0,9.6-11.5,16.9-12.9c7.7-1.5,7.7,11.9,9.6,19.3c1.8,7.2,3,11.3,4.6,11.3c1.6,0,4.6-4,7.9-10.2
		c3.3-6.2-0.1-11.6-6.6-7.7C69.2,39.7,93.6,36,90.4,53.7z"/>
	<g>
	</g>
	<g>
	</g>
	<g>
	</g>
	<g>
	</g>
	<g>
	</g>
	<g>
	</g>
</g>
</svg>
